<svg width="1000" height="605" viewBox="0 0 1000 605" fill="none" xmlns="http://www.w3.org/2000/svg">
<path d="M2.35102 474.178H19.4109L36.0679 555.045H36.3365L52.1875 474.178H78.9863L95.7775 555.045H96.0462L111.763 474.178H128.084L107.733 570.022H82.546L65.5533 487.745H65.3518L49.4337 570.022H23.9781L2.35102 474.178ZM142.659 474.178H158.778V513.873H199.883V474.178H216.003V570.022H199.883V528.917H158.778V570.022H142.659V474.178ZM240.451 474.178H256.571V570.022H240.451V474.178ZM274.839 559.545L324.81 489.29V489.156H277.593V474.178H348.587V484.857L298.75 554.91V555.045H349.124V570.022H274.839V559.545ZM362.557 555.716C364.841 556.03 367.303 556.298 369.945 556.522C372.229 556.746 374.826 556.925 377.736 557.06C380.691 557.194 383.803 557.261 387.072 557.261C391.415 557.261 394.863 556.992 397.416 556.455C399.968 555.873 401.916 555.045 403.259 553.97C404.602 552.851 405.453 551.485 405.811 549.873C406.214 548.261 406.416 546.403 406.416 544.298C406.416 542.642 406.326 541.142 406.147 539.798C406.013 538.41 405.654 537.179 405.072 536.104C404.49 535.029 403.662 534.112 402.587 533.35C401.513 532.544 400.035 531.895 398.154 531.403L378.609 526.298C375.52 525.492 372.9 524.417 370.751 523.074C368.602 521.686 366.855 519.94 365.512 517.835C364.214 515.731 363.251 513.201 362.624 510.246C362.042 507.246 361.751 503.731 361.751 499.701C361.751 494.954 362.467 490.857 363.9 487.41C365.333 483.917 367.348 481.051 369.945 478.812C372.587 476.574 375.766 474.917 379.483 473.842C383.199 472.768 387.341 472.23 391.908 472.23C395.714 472.23 399.184 472.454 402.319 472.902C405.498 473.305 408.229 473.753 410.513 474.245C413.199 474.827 415.64 475.477 417.834 476.193V488.618C415.819 488.35 413.692 488.104 411.453 487.88C409.528 487.656 407.356 487.477 404.938 487.342C402.565 487.163 400.102 487.074 397.55 487.074C393.565 487.074 390.296 487.208 387.744 487.477C385.192 487.745 383.177 488.305 381.699 489.156C380.221 490.007 379.191 491.216 378.609 492.783C378.027 494.35 377.736 496.432 377.736 499.029C377.736 500.462 377.803 501.738 377.938 502.857C378.117 503.977 378.475 504.962 379.012 505.813C379.594 506.663 380.4 507.402 381.43 508.029C382.505 508.656 383.938 509.238 385.729 509.775L403.931 515.014C406.259 515.686 408.319 516.402 410.11 517.164C411.946 517.88 413.535 518.753 414.878 519.783C416.222 520.768 417.364 521.932 418.304 523.276C419.289 524.619 420.073 526.231 420.655 528.111C421.237 529.947 421.662 532.119 421.931 534.627C422.199 537.134 422.334 540.022 422.334 543.291C422.334 548.395 421.886 552.783 420.99 556.455C420.14 560.082 418.505 563.06 416.087 565.388C413.669 567.672 410.334 569.351 406.08 570.425C401.871 571.545 396.408 572.105 389.692 572.105C384.497 572.105 380.177 571.858 376.729 571.366C373.326 570.918 370.55 570.403 368.4 569.821C365.938 569.149 363.99 568.388 362.557 567.537V555.716ZM441.274 474.178H498.902V489.156H457.394V514.343H492.185V529.052H457.394V555.045H500.044V570.022H441.274V474.178ZM518.514 474.178H576.142V489.156H534.634V514.343H569.425V529.052H534.634V555.045H577.283V570.022H518.514V474.178ZM595.754 474.178H630.142C633.68 474.178 637.06 474.424 640.284 474.917C643.553 475.409 646.575 476.283 649.351 477.536C652.128 478.79 654.658 480.536 656.941 482.775C659.225 485.014 661.173 487.88 662.784 491.372C664.396 494.865 665.628 499.074 666.479 503.999C667.374 508.925 667.822 514.701 667.822 521.328C667.822 528.179 667.419 534.156 666.613 539.261C665.807 544.321 664.643 548.664 663.12 552.291C661.598 555.873 659.74 558.828 657.546 561.157C655.352 563.44 652.844 565.254 650.023 566.597C647.247 567.896 644.18 568.791 640.822 569.284C637.508 569.776 633.948 570.022 630.142 570.022H595.754V474.178ZM625.777 555.045C628.06 555.045 630.277 555 632.426 554.91C634.575 554.776 636.568 554.373 638.404 553.701C640.284 553.03 641.986 552.022 643.508 550.679C645.075 549.291 646.396 547.343 647.471 544.836C648.59 542.328 649.441 539.171 650.023 535.365C650.65 531.515 650.963 526.791 650.963 521.194C650.963 515.999 650.672 511.611 650.09 508.029C649.508 504.402 648.68 501.402 647.605 499.029C646.531 496.656 645.232 494.82 643.71 493.522C642.232 492.178 640.553 491.193 638.672 490.566C636.792 489.895 634.754 489.492 632.56 489.357C630.411 489.223 628.15 489.156 625.777 489.156H611.873V555.045H625.777ZM682.464 560.687C682.464 558.582 682.598 556.881 682.867 555.582C683.18 554.239 683.718 553.186 684.479 552.425C685.285 551.664 686.337 551.149 687.636 550.88C688.979 550.612 690.658 550.477 692.673 550.477C694.733 550.477 696.434 550.612 697.777 550.88C699.121 551.149 700.173 551.664 700.934 552.425C701.695 553.186 702.233 554.239 702.546 555.582C702.86 556.881 703.016 558.582 703.016 560.687C703.016 562.746 702.86 564.448 702.546 565.791C702.233 567.09 701.695 568.142 700.934 568.948C700.173 569.709 699.121 570.224 697.777 570.493C696.434 570.806 694.733 570.963 692.673 570.963C690.658 570.963 688.979 570.806 687.636 570.493C686.337 570.224 685.285 569.709 684.479 568.948C683.718 568.142 683.18 567.09 682.867 565.791C682.598 564.448 682.464 562.746 682.464 560.687ZM755.069 571.702C751.98 571.702 748.89 571.411 745.8 570.828C742.756 570.246 739.845 569.239 737.069 567.806C734.338 566.373 731.785 564.448 729.412 562.03C727.039 559.567 724.979 556.478 723.233 552.761C721.487 549 720.121 544.545 719.136 539.395C718.151 534.246 717.658 528.223 717.658 521.328C717.658 514.701 718.218 508.902 719.337 503.932C720.457 498.917 721.957 494.596 723.837 490.969C725.718 487.342 727.912 484.365 730.42 482.036C732.927 479.663 735.569 477.783 738.345 476.394C741.121 475.006 743.942 474.044 746.808 473.506C749.674 472.924 752.427 472.633 755.069 472.633C759.547 472.633 763.442 472.857 766.756 473.305C770.069 473.753 772.846 474.245 775.084 474.782C777.681 475.409 779.898 476.126 781.734 476.932V488.484C779.898 488.35 777.928 488.215 775.823 488.081C774.032 487.992 771.972 487.902 769.644 487.812C767.36 487.678 764.965 487.611 762.457 487.611C760.174 487.611 757.89 487.701 755.607 487.88C753.368 488.059 751.196 488.529 749.092 489.29C747.032 490.007 745.106 491.081 743.315 492.514C741.524 493.947 739.957 495.917 738.614 498.425C737.315 500.887 736.285 503.977 735.524 507.693C734.808 511.41 734.45 515.91 734.45 521.194C734.45 526.746 734.83 531.492 735.591 535.432C736.353 539.373 737.405 542.664 738.748 545.306C740.091 547.948 741.659 550.03 743.45 551.552C745.241 553.074 747.189 554.239 749.293 555.045C751.398 555.806 753.592 556.298 755.875 556.522C758.159 556.701 760.442 556.791 762.726 556.791C765.681 556.791 768.368 556.746 770.786 556.657C773.204 556.567 775.263 556.478 776.965 556.388C778.98 556.254 780.793 556.119 782.405 555.985V567.537C780.435 568.343 778.107 569.037 775.42 569.619C773.092 570.157 770.226 570.627 766.823 571.03C763.465 571.478 759.547 571.702 755.069 571.702ZM836.339 572.105C832.219 572.105 828.391 571.814 824.854 571.231C821.316 570.649 818.092 569.642 815.182 568.209C812.271 566.731 809.674 564.784 807.391 562.366C805.152 559.948 803.249 556.903 801.682 553.231C800.115 549.515 798.928 545.127 798.122 540.067C797.316 535.007 796.913 529.119 796.913 522.402C796.913 512.328 797.809 504.044 799.6 497.551C801.391 491.059 803.988 485.954 807.391 482.238C810.794 478.477 814.936 475.88 819.816 474.447C824.697 472.969 830.204 472.23 836.339 472.23C840.414 472.23 844.22 472.544 847.757 473.171C851.294 473.797 854.518 474.85 857.429 476.327C860.339 477.805 862.914 479.797 865.153 482.305C867.391 484.768 869.272 487.857 870.795 491.574C872.362 495.29 873.548 499.701 874.354 504.805C875.16 509.865 875.563 515.731 875.563 522.402C875.563 529.074 875.16 534.94 874.354 540C873.548 545.059 872.362 549.448 870.795 553.164C869.272 556.836 867.391 559.903 865.153 562.366C862.914 564.784 860.339 566.709 857.429 568.142C854.518 569.575 851.294 570.582 847.757 571.164C844.22 571.791 840.414 572.105 836.339 572.105ZM836.339 557.261C840.727 557.261 844.354 556.746 847.22 555.716C850.13 554.686 852.436 552.873 854.138 550.276C855.839 547.634 857.026 544.074 857.697 539.597C858.414 535.074 858.772 529.343 858.772 522.402C858.772 515.417 858.414 509.664 857.697 505.141C857.026 500.619 855.839 497.036 854.138 494.395C852.436 491.708 850.13 489.85 847.22 488.82C844.354 487.745 840.727 487.208 836.339 487.208C831.951 487.208 828.301 487.745 825.391 488.82C822.48 489.85 820.174 491.708 818.473 494.395C816.771 497.036 815.562 500.619 814.846 505.141C814.174 509.664 813.839 515.417 813.839 522.402C813.839 529.343 814.174 535.074 814.846 539.597C815.562 544.074 816.771 547.634 818.473 550.276C820.174 552.873 822.48 554.686 825.391 555.716C828.301 556.746 831.951 557.261 836.339 557.261ZM895.578 474.178H923.519L941.251 531.94H941.788L960.124 474.178H987.594V570.022H971.542V489.156H971.139L969.326 495.201C968.833 496.902 968.296 498.693 967.714 500.574C967.132 502.41 966.617 503.999 966.169 505.343L953.81 544.03H929.698L917.071 505.074C916.623 503.731 916.109 502.163 915.526 500.372C914.944 498.537 914.407 496.79 913.914 495.133C913.332 493.208 912.728 491.216 912.101 489.156H911.698V570.022H895.578V474.178Z" fill="black"/>
<path d="M274.502 410.451L101.963 102.301L455.098 106.953L274.502 410.451Z" fill="#F4EB17"/>
<path d="M436.46 410.451L263.886 104.979L617.021 109.631L436.46 410.451Z" fill="#CCC501"/>
<path d="M644.905 105.076L472.648 412.723L825.206 408.078L644.905 105.076Z" fill="#1E1E1E"/>
<path d="M624.822 282.863L711.175 252.857L663.454 220.543L580.361 252.857L624.822 282.863Z" fill="#CDCDCD"/>
<path d="M567.894 378.601L728.082 371.889L719.692 336.506L559.504 343.218L567.894 378.601Z" fill="#CDCDCD"/>
<path d="M580.36 309.407L728.081 371.727L728.081 315.177L580.36 252.858L580.36 309.407Z" fill="white"/>
</svg>
