<svg width="190" height="70" viewBox="0 0 190 70" fill="none" xmlns="http://www.w3.org/2000/svg">
<g filter="url(#filter0_d_1186_641)">
<rect x="7" y="6" width="176" height="55" rx="9.29577" fill="white"/>
</g>
<path d="M67.0884 38V27.2619H74.3096V29.2077H69.3225V31.6436H74.0214V33.5894H69.3225V36.0542H74.3096V38H67.0884ZM75.4176 38V30.1302H77.4355V31.6868L77.3202 31.3409C77.5027 30.8701 77.7958 30.5241 78.1994 30.3031C78.6126 30.0725 79.093 29.9572 79.6408 29.9572C80.2365 29.9572 80.7554 30.0821 81.1974 30.332C81.6491 30.5818 81.9998 30.9325 82.2496 31.3842C82.4995 31.8262 82.6244 32.3451 82.6244 32.9408V38H80.4623V33.4021C80.4623 33.0946 80.3999 32.8303 80.275 32.6093C80.1597 32.3883 79.9915 32.2153 79.7705 32.0904C79.5591 31.9655 79.3092 31.903 79.021 31.903C78.7423 31.903 78.4925 31.9655 78.2715 32.0904C78.0505 32.2153 77.8775 32.3883 77.7526 32.6093C77.6373 32.8303 77.5796 33.0946 77.5796 33.4021V38H75.4176ZM86.37 38L83.2711 30.1302H85.6061L87.7537 36.083H86.8601L89.0077 30.1302H91.3427L88.2438 38H86.37ZM92.2945 38V30.1302H94.4565V38H92.2945ZM92.2945 29.4239V27.2619H94.4565V29.4239H92.2945ZM96.0386 38V30.1302H98.0565V32.0184L97.9124 31.7445C98.0853 31.0815 98.3688 30.6346 98.7628 30.404C99.1664 30.1638 99.642 30.0437 100.19 30.0437H100.651V31.9175H99.9735C99.445 31.9175 99.0174 32.0808 98.6907 32.4075C98.364 32.7246 98.2007 33.1762 98.2007 33.7624V38H96.0386ZM105.505 38.173C104.726 38.173 104.015 37.9952 103.371 37.6397C102.737 37.2841 102.228 36.7989 101.844 36.1839C101.469 35.5593 101.281 34.853 101.281 34.0651C101.281 33.2675 101.469 32.5613 101.844 31.9463C102.228 31.3313 102.737 30.846 103.371 30.4905C104.015 30.135 104.726 29.9572 105.505 29.9572C106.283 29.9572 106.989 30.135 107.623 30.4905C108.258 30.846 108.762 31.3313 109.137 31.9463C109.521 32.5613 109.713 33.2675 109.713 34.0651C109.713 34.853 109.521 35.5593 109.137 36.1839C108.762 36.7989 108.258 37.2841 107.623 37.6397C106.989 37.9952 106.283 38.173 105.505 38.173ZM105.505 36.2271C105.899 36.2271 106.24 36.1358 106.528 35.9533C106.826 35.7707 107.057 35.5161 107.22 35.1893C107.393 34.8626 107.479 34.4879 107.479 34.0651C107.479 33.6423 107.393 33.2723 107.22 32.9552C107.057 32.6285 106.826 32.3739 106.528 32.1913C106.24 31.9991 105.899 31.903 105.505 31.903C105.111 31.903 104.765 31.9991 104.467 32.1913C104.169 32.3739 103.934 32.6285 103.761 32.9552C103.597 33.2723 103.516 33.6423 103.516 34.0651C103.516 34.4879 103.597 34.8626 103.761 35.1893C103.934 35.5161 104.169 35.7707 104.467 35.9533C104.765 36.1358 105.111 36.2271 105.505 36.2271ZM110.987 38V30.1302H113.005V31.6868L112.89 31.3409C113.072 30.8701 113.365 30.5241 113.769 30.3031C114.182 30.0725 114.663 29.9572 115.21 29.9572C115.806 29.9572 116.325 30.0821 116.767 30.332C117.219 30.5818 117.569 30.9325 117.819 31.3842C118.069 31.8262 118.194 32.3451 118.194 32.9408V38H116.032V33.4021C116.032 33.0946 115.969 32.8303 115.844 32.6093C115.729 32.3883 115.561 32.2153 115.34 32.0904C115.129 31.9655 114.879 31.903 114.591 31.903C114.312 31.903 114.062 31.9655 113.841 32.0904C113.62 32.2153 113.447 32.3883 113.322 32.6093C113.207 32.8303 113.149 33.0946 113.149 33.4021V38H110.987ZM119.616 38V30.1302H121.633V32.0472L121.417 31.7301C121.533 31.1247 121.811 30.6779 122.253 30.3896C122.695 30.1013 123.224 29.9572 123.839 29.9572C124.492 29.9572 125.064 30.1254 125.554 30.4617C126.054 30.7884 126.366 31.2304 126.491 31.7877L125.871 31.8454C126.131 31.2016 126.5 30.7259 126.981 30.4184C127.461 30.1109 128.024 29.9572 128.667 29.9572C129.234 29.9572 129.734 30.0821 130.166 30.332C130.608 30.5818 130.954 30.9325 131.204 31.3842C131.454 31.8262 131.579 32.3451 131.579 32.9408V38H129.417V33.4021C129.417 33.0946 129.359 32.8303 129.244 32.6093C129.138 32.3883 128.984 32.2153 128.783 32.0904C128.581 31.9655 128.336 31.903 128.048 31.903C127.769 31.903 127.524 31.9655 127.312 32.0904C127.111 32.2153 126.952 32.3883 126.837 32.6093C126.731 32.8303 126.678 33.0946 126.678 33.4021V38H124.516V33.4021C124.516 33.0946 124.459 32.8303 124.343 32.6093C124.238 32.3883 124.084 32.2153 123.882 32.0904C123.68 31.9655 123.435 31.903 123.147 31.903C122.868 31.903 122.623 31.9655 122.412 32.0904C122.21 32.2153 122.051 32.3883 121.936 32.6093C121.83 32.8303 121.778 33.0946 121.778 33.4021V38H119.616ZM136.792 38.173C135.956 38.173 135.231 37.9904 134.616 37.6252C134.001 37.2505 133.525 36.7508 133.189 36.1262C132.853 35.5016 132.685 34.8098 132.685 34.0507C132.685 33.2627 132.858 32.5613 133.203 31.9463C133.559 31.3313 134.035 30.846 134.63 30.4905C135.226 30.135 135.899 29.9572 136.648 29.9572C137.273 29.9572 137.825 30.0581 138.306 30.2599C138.786 30.4521 139.19 30.7259 139.517 31.0815C139.853 31.437 140.108 31.8502 140.281 32.321C140.453 32.7823 140.54 33.2867 140.54 33.8345C140.54 33.9882 140.53 34.142 140.511 34.2957C140.502 34.4398 140.478 34.5648 140.439 34.6705H134.544V33.085H139.214L138.191 33.8345C138.287 33.4213 138.282 33.0561 138.176 32.739C138.07 32.4123 137.883 32.1577 137.614 31.9751C137.355 31.7829 137.033 31.6868 136.648 31.6868C136.274 31.6868 135.952 31.7781 135.683 31.9607C135.414 32.1433 135.212 32.4123 135.077 32.7679C134.943 33.1234 134.89 33.5558 134.919 34.0651C134.88 34.5071 134.933 34.8963 135.077 35.2326C135.221 35.5689 135.442 35.8332 135.74 36.0253C136.038 36.2079 136.398 36.2992 136.821 36.2992C137.206 36.2992 137.532 36.2223 137.801 36.0686C138.08 35.9148 138.296 35.7034 138.45 35.4344L140.18 36.256C140.026 36.6403 139.781 36.9766 139.445 37.2649C139.118 37.5532 138.729 37.779 138.277 37.9423C137.825 38.0961 137.331 38.173 136.792 38.173ZM141.813 38V30.1302H143.831V31.6868L143.716 31.3409C143.898 30.8701 144.191 30.5241 144.595 30.3031C145.008 30.0725 145.489 29.9572 146.036 29.9572C146.632 29.9572 147.151 30.0821 147.593 30.332C148.045 30.5818 148.395 30.9325 148.645 31.3842C148.895 31.8262 149.02 32.3451 149.02 32.9408V38H146.858V33.4021C146.858 33.0946 146.795 32.8303 146.67 32.6093C146.555 32.3883 146.387 32.2153 146.166 32.0904C145.955 31.9655 145.705 31.903 145.416 31.903C145.138 31.903 144.888 31.9655 144.667 32.0904C144.446 32.2153 144.273 32.3883 144.148 32.6093C144.033 32.8303 143.975 33.0946 143.975 33.4021V38H141.813ZM154.232 38.0865C153.281 38.0865 152.541 37.8318 152.013 37.3226C151.494 36.8037 151.234 36.083 151.234 35.1605V32.0039H149.908V30.1302H149.98C150.384 30.1302 150.691 30.0293 150.903 29.8275C151.124 29.6257 151.234 29.323 151.234 28.9194V28.3429H153.396V30.1302H155.241V32.0039H153.396V35.0164C153.396 35.2854 153.444 35.5112 153.54 35.6938C153.637 35.8668 153.786 35.9965 153.987 36.083C154.189 36.1695 154.439 36.2127 154.737 36.2127C154.804 36.2127 154.881 36.2079 154.967 36.1983C155.054 36.1887 155.145 36.1791 155.241 36.1695V38C155.097 38.0192 154.934 38.0384 154.751 38.0577C154.569 38.0769 154.396 38.0865 154.232 38.0865ZM158.944 38.173C158.377 38.173 157.887 38.0817 157.474 37.8991C157.061 37.7165 156.744 37.4571 156.523 37.1208C156.302 36.7748 156.191 36.3665 156.191 35.8956C156.191 35.4536 156.292 35.0644 156.494 34.7281C156.696 34.3822 157.003 34.0939 157.416 33.8633C157.839 33.6327 158.363 33.4693 158.987 33.3732L161.394 32.9841V34.5696L159.377 34.9299C159.069 34.9876 158.834 35.0885 158.67 35.2326C158.507 35.3671 158.425 35.5641 158.425 35.8235C158.425 36.0638 158.517 36.2511 158.699 36.3857C158.882 36.5202 159.107 36.5875 159.377 36.5875C159.732 36.5875 160.044 36.5106 160.313 36.3568C160.582 36.2031 160.789 35.9965 160.933 35.7371C161.087 35.468 161.164 35.1749 161.164 34.8578V32.8111C161.164 32.5132 161.044 32.2634 160.803 32.0616C160.573 31.8598 160.256 31.7589 159.852 31.7589C159.468 31.7589 159.127 31.8646 158.829 32.076C158.541 32.2874 158.329 32.5661 158.195 32.912L156.465 32.0904C156.619 31.6484 156.864 31.2688 157.2 30.9517C157.536 30.6346 157.94 30.3896 158.411 30.2166C158.882 30.0437 159.396 29.9572 159.953 29.9572C160.616 29.9572 161.202 30.0773 161.712 30.3175C162.221 30.5578 162.615 30.8941 162.893 31.3265C163.182 31.7493 163.326 32.2442 163.326 32.8111V38H161.308V36.7316L161.798 36.6451C161.567 36.991 161.313 37.2793 161.034 37.5099C160.755 37.7309 160.443 37.8943 160.097 38C159.751 38.1153 159.367 38.173 158.944 38.173ZM164.911 38V27.0889H167.074V38H164.911Z" fill="#131313"/>
<path d="M60.9429 16.4635C60.8862 16.3263 60.7901 16.2091 60.6667 16.1266C60.5434 16.0441 60.3983 16 60.2499 16C31.1425 16 28 28.063 28 33.2499C28 35.1159 28.414 36.8589 29.2315 38.4294C29.2934 38.5486 29.3862 38.6489 29.5002 38.7199C29.6142 38.7909 29.7452 38.83 29.8795 38.8329C30.1375 38.8254 30.409 38.6964 30.5455 38.4579C32.5105 35.0619 38.0755 26.6799 47.266 22.2265C47.6425 22.0465 48.0925 22.201 48.271 22.5715C48.451 22.945 48.2949 23.395 47.923 23.575C47.23 23.911 46.564 24.277 45.9115 24.6565C45.6625 24.802 45.421 24.9565 45.1765 25.108C44.809 25.336 44.446 25.5684 44.092 25.8085C43.74 26.045 43.3924 26.288 43.0495 26.5375C42.943 26.6155 42.841 26.695 42.736 26.7745C33.589 33.5904 28 44.4639 28 48.2499C28 48.6639 28.336 48.9999 28.75 48.9999C29.164 48.9999 29.5 48.6639 29.5 48.2499C29.5 47.0409 30.3235 44.5899 31.882 41.6664C34.144 43.5159 37.1875 44.4999 40.75 44.4999C50.3814 44.4999 52.399 35.335 53.4819 30.4105C54.9399 23.7835 58.1484 19.912 60.7794 17.2795C60.8846 17.1751 60.9563 17.0417 60.9855 16.8964C61.0146 16.7511 60.9998 16.6004 60.9429 16.4635Z" fill="#FF6174"/>
<defs>
<filter id="filter0_d_1186_641" x="0.128594" y="0.745396" width="189.743" height="68.7428" filterUnits="userSpaceOnUse" color-interpolation-filters="sRGB">
<feFlood flood-opacity="0" result="BackgroundImageFix"/>
<feColorMatrix in="SourceAlpha" type="matrix" values="0 0 0 0 0 0 0 0 0 0 0 0 0 0 0 0 0 0 127 0" result="hardAlpha"/>
<feOffset dy="1.6168"/>
<feGaussianBlur stdDeviation="3.4357"/>
<feComposite in2="hardAlpha" operator="out"/>
<feColorMatrix type="matrix" values="0 0 0 0 0 0 0 0 0 0 0 0 0 0 0 0 0 0 0.25 0"/>
<feBlend mode="normal" in2="BackgroundImageFix" result="effect1_dropShadow_1186_641"/>
<feBlend mode="normal" in="SourceGraphic" in2="effect1_dropShadow_1186_641" result="shape"/>
</filter>
</defs>
</svg>
