<svg width="86" height="76" viewBox="0 0 86 76" fill="none" xmlns="http://www.w3.org/2000/svg">
<g clip-path="url(#clip0_343_1665)">
<path d="M44.3023 17.0967C40.9894 9.0896 30.1079 3.85062 22.2124 0.608521C21.394 0.272457 20.4523 0.659589 20.1092 1.47317C16.798 9.32484 12.7808 20.6888 16.0895 28.6978C17.7663 32.1655 20.7406 34.8434 24.3833 36.1648C28.0138 37.8252 32.1467 38.0733 35.9676 36.8602C41.9965 34.3792 47.2215 24.1576 44.3023 17.0967ZM82.059 32.0199C74.1606 28.7767 62.725 24.8516 54.6333 28.1757C47.4826 31.1154 43.8344 41.9672 46.2998 47.9361C48.1213 51.4666 51.2135 54.1854 54.967 55.5565C58.4845 57.1749 62.5058 57.3697 66.1807 56.0998C74.2735 52.7728 79.6095 41.9504 82.9208 34.0985C83.2619 33.2856 82.8763 32.3556 82.059 32.0199Z" fill="#44CC4A"/>
<path d="M31.1885 61.9914C30.3706 61.6556 29.9269 60.8633 30.1975 60.2218C40.5901 35.584 31.6791 24.673 28.3238 20.5673C27.9113 20.0907 27.5403 19.5929 27.2142 19.0788C26.8406 18.3841 27.1672 17.6554 27.9434 17.4512C28.3078 17.3553 28.726 17.3899 29.1099 17.5475C29.4938 17.705 29.8133 17.9734 30.0012 18.296C30.242 18.6551 30.5109 19.0032 30.8057 19.3376C33.7849 22.9837 40.8012 31.5742 37.2035 48.827C40.1374 45.1989 44.1381 42.3226 48.9025 40.4163C53.6668 38.5099 59.0698 37.6235 64.702 37.8241C65.1234 37.8392 65.5484 37.9881 65.8925 38.241C66.2366 38.4939 66.4745 38.8323 66.5587 39.1887C66.7149 39.8604 66.2061 40.4233 65.4219 40.4462C65.3925 40.447 65.3629 40.4471 65.3332 40.4464L65.056 40.4362C46.2936 39.7572 37.3496 51.4792 33.1504 61.4342C32.8812 62.0729 32.0046 62.3219 31.1885 61.9914Z" fill="#388E3C"/>
</g>
<defs>
<clipPath id="clip0_343_1665">
<rect width="86" height="76" fill="white"/>
</clipPath>
</defs>
</svg>
