<svg width="32" height="32" viewBox="0 0 32 32" fill="none" xmlns="http://www.w3.org/2000/svg">
<path d="M20.5365 28V18.7125H23.6463L24.1117 15.102H20.5365V12.7969C20.5365 11.7515 20.8267 11.0391 22.3257 11.0391L24.2377 11.0382V7.80901C23.9069 7.76509 22.7721 7.66675 21.4517 7.66675C18.6951 7.66675 16.808 9.34931 16.808 12.4394V15.102H13.6903V18.7125H16.808V28H5.33333C4.59696 28 4 27.4031 4 26.6667V5.33333C4 4.59696 4.59696 4 5.33333 4H26.6667C27.4031 4 28 4.59696 28 5.33333V26.6667C28 27.4031 27.4031 28 26.6667 28H20.5365Z" fill="black"/>
</svg>
