<svg width="183" height="136" viewBox="0 0 183 136" fill="none" xmlns="http://www.w3.org/2000/svg">
<g filter="url(#filter0_d_1186_658)">
<rect x="9" y="7" width="165" height="118" rx="12" fill="url(#paint0_radial_1186_658)" fill-opacity="0.6"/>
<rect x="9" y="7" width="165" height="118" rx="12" fill="white"/>
</g>
<path d="M62.7731 89V76.413H59.8006V73.7275H65.9506V89H62.7731ZM74.9313 89.246C73.715 89.246 72.6422 88.918 71.7128 88.262C70.7972 87.606 70.0797 86.6835 69.5603 85.4945C69.041 84.3055 68.7813 82.9252 68.7813 81.3535C68.7813 79.7682 69.0342 78.3878 69.5398 77.2125C70.0592 76.0372 70.7767 75.1215 71.6923 74.4655C72.6217 73.8095 73.6945 73.4815 74.9108 73.4815C76.1545 73.4815 77.2342 73.8095 78.1498 74.4655C79.0792 75.1215 79.7967 76.044 80.3023 77.233C80.8217 78.4083 81.0813 79.7818 81.0813 81.3535C81.0813 82.9252 80.8217 84.3055 80.3023 85.4945C79.7967 86.6698 79.0792 87.5923 78.1498 88.262C77.2342 88.918 76.1613 89.246 74.9313 89.246ZM74.9518 86.376C75.5805 86.376 76.1135 86.1778 76.5508 85.7815C76.9882 85.3852 77.323 84.8112 77.5553 84.0595C77.7877 83.3078 77.9038 82.4058 77.9038 81.3535C77.9038 80.3012 77.7877 79.406 77.5553 78.668C77.323 77.9163 76.9813 77.3423 76.5303 76.946C76.093 76.5497 75.5532 76.3515 74.9108 76.3515C74.2822 76.3515 73.7492 76.5497 73.3118 76.946C72.8745 77.3423 72.5397 77.9163 72.3073 78.668C72.075 79.406 71.9588 80.3012 71.9588 81.3535C71.9588 82.3922 72.075 83.2873 72.3073 84.039C72.5397 84.7907 72.8745 85.3715 73.3118 85.7815C73.7628 86.1778 74.3095 86.376 74.9518 86.376ZM89.2854 89.246C88.069 89.246 86.9962 88.918 86.0669 88.262C85.1512 87.606 84.4337 86.6835 83.9144 85.4945C83.395 84.3055 83.1354 82.9252 83.1354 81.3535C83.1354 79.7682 83.3882 78.3878 83.8939 77.2125C84.4132 76.0372 85.1307 75.1215 86.0464 74.4655C86.9757 73.8095 88.0485 73.4815 89.2649 73.4815C90.5085 73.4815 91.5882 73.8095 92.5039 74.4655C93.4332 75.1215 94.1507 76.044 94.6564 77.233C95.1757 78.4083 95.4354 79.7818 95.4354 81.3535C95.4354 82.9252 95.1757 84.3055 94.6564 85.4945C94.1507 86.6698 93.4332 87.5923 92.5039 88.262C91.5882 88.918 90.5154 89.246 89.2854 89.246ZM89.3059 86.376C89.9345 86.376 90.4675 86.1778 90.9049 85.7815C91.3422 85.3852 91.677 84.8112 91.9094 84.0595C92.1417 83.3078 92.2579 82.4058 92.2579 81.3535C92.2579 80.3012 92.1417 79.406 91.9094 78.668C91.677 77.9163 91.3354 77.3423 90.8844 76.946C90.447 76.5497 89.9072 76.3515 89.2649 76.3515C88.6362 76.3515 88.1032 76.5497 87.6659 76.946C87.2285 77.3423 86.8937 77.9163 86.6614 78.668C86.429 79.406 86.3129 80.3012 86.3129 81.3535C86.3129 82.3922 86.429 83.2873 86.6614 84.039C86.8937 84.7907 87.2285 85.3715 87.6659 85.7815C88.1169 86.1778 88.6635 86.376 89.3059 86.376ZM103.639 89.246C102.423 89.246 101.35 88.918 100.421 88.262C99.5052 87.606 98.7877 86.6835 98.2684 85.4945C97.749 84.3055 97.4894 82.9252 97.4894 81.3535C97.4894 79.7682 97.7422 78.3878 98.2479 77.2125C98.7672 76.0372 99.4847 75.1215 100.4 74.4655C101.33 73.8095 102.403 73.4815 103.619 73.4815C104.863 73.4815 105.942 73.8095 106.858 74.4655C107.787 75.1215 108.505 76.044 109.01 77.233C109.53 78.4083 109.789 79.7818 109.789 81.3535C109.789 82.9252 109.53 84.3055 109.01 85.4945C108.505 86.6698 107.787 87.5923 106.858 88.262C105.942 88.918 104.869 89.246 103.639 89.246ZM103.66 86.376C104.289 86.376 104.822 86.1778 105.259 85.7815C105.696 85.3852 106.031 84.8112 106.263 84.0595C106.496 83.3078 106.612 82.4058 106.612 81.3535C106.612 80.3012 106.496 79.406 106.263 78.668C106.031 77.9163 105.689 77.3423 105.238 76.946C104.801 76.5497 104.261 76.3515 103.619 76.3515C102.99 76.3515 102.457 76.5497 102.02 76.946C101.583 77.3423 101.248 77.9163 101.015 78.668C100.783 79.406 100.667 80.3012 100.667 81.3535C100.667 82.3922 100.783 83.2873 101.015 84.039C101.248 84.7907 101.583 85.3715 102.02 85.7815C102.471 86.1778 103.018 86.376 103.66 86.376ZM116.497 89V85.146H112.643V82.5835H116.497V78.75H119.059V82.5835H122.893V85.146H119.059V89H116.497Z" fill="#131313"/>
<path d="M53.1139 106.357V97.6298H54.2619V101.519H58.6313V97.6298H59.791V106.357H58.6313V102.573H54.2619V106.357H53.1139ZM63.45 106.498C63.0361 106.498 62.6691 106.423 62.3489 106.275C62.0365 106.119 61.7905 105.908 61.6109 105.642C61.4312 105.369 61.3414 105.057 61.3414 104.705C61.3414 104.369 61.4117 104.069 61.5523 103.803C61.7007 103.53 61.9271 103.3 62.2317 103.112C62.5441 102.925 62.9346 102.792 63.4031 102.714L65.746 102.327V103.241L63.6491 103.592C63.2431 103.663 62.9463 103.792 62.7589 103.979C62.5792 104.166 62.4894 104.397 62.4894 104.67C62.4894 104.928 62.591 105.143 62.794 105.314C63.0049 105.486 63.2665 105.572 63.5789 105.572C63.9771 105.572 64.3208 105.49 64.6097 105.326C64.9065 105.154 65.1369 104.924 65.3009 104.635C65.4727 104.346 65.5586 104.026 65.5586 103.674V102.07C65.5586 101.726 65.4297 101.449 65.172 101.238C64.9221 101.019 64.5902 100.91 64.1763 100.91C63.8171 100.91 63.4969 101.004 63.2157 101.191C62.9424 101.371 62.7393 101.613 62.6066 101.917L61.6577 101.425C61.7749 101.136 61.9623 100.879 62.22 100.652C62.4777 100.418 62.7784 100.234 63.122 100.102C63.4656 99.9687 63.8249 99.9024 64.1997 99.9024C64.6839 99.9024 65.1095 99.9961 65.4766 100.184C65.8436 100.363 66.1287 100.617 66.3317 100.945C66.5426 101.265 66.648 101.64 66.648 102.07V106.357H65.582V105.162L65.7811 105.232C65.6484 105.482 65.4688 105.701 65.2423 105.888C65.0158 106.076 64.7503 106.224 64.4457 106.334C64.1411 106.443 63.8092 106.498 63.45 106.498ZM68.3372 108.7V100.043H69.4032V101.402L69.2626 101.132C69.4969 100.758 69.8171 100.461 70.2232 100.242C70.6292 100.016 71.0939 99.9024 71.6172 99.9024C72.2107 99.9024 72.7417 100.047 73.2103 100.336C73.6867 100.625 74.0615 101.019 74.3349 101.519C74.6082 102.011 74.7449 102.573 74.7449 103.206C74.7449 103.823 74.6082 104.381 74.3349 104.881C74.0615 105.381 73.6867 105.775 73.2103 106.064C72.7417 106.353 72.2068 106.498 71.6054 106.498C71.0978 106.498 70.6332 106.384 70.2114 106.158C69.7975 105.931 69.4773 105.611 69.2509 105.197L69.4266 105.01V108.7H68.3372ZM71.5234 105.443C71.9217 105.443 72.2771 105.346 72.5894 105.15C72.9018 104.955 73.1439 104.69 73.3157 104.354C73.4953 104.01 73.5852 103.628 73.5852 103.206C73.5852 102.768 73.4953 102.386 73.3157 102.058C73.1439 101.722 72.9018 101.456 72.5894 101.261C72.2771 101.058 71.9217 100.957 71.5234 100.957C71.1252 100.957 70.7659 101.054 70.4457 101.25C70.1333 101.445 69.8834 101.714 69.696 102.058C69.5164 102.394 69.4266 102.776 69.4266 103.206C69.4266 103.628 69.5164 104.01 69.696 104.354C69.8834 104.69 70.1333 104.955 70.4457 105.15C70.7659 105.346 71.1252 105.443 71.5234 105.443ZM76.1734 108.7V100.043H77.2394V101.402L77.0988 101.132C77.3331 100.758 77.6533 100.461 78.0594 100.242C78.4655 100.016 78.9301 99.9024 79.4534 99.9024C80.0469 99.9024 80.5779 100.047 81.0465 100.336C81.5229 100.625 81.8977 101.019 82.1711 101.519C82.4444 102.011 82.5811 102.573 82.5811 103.206C82.5811 103.823 82.4444 104.381 82.1711 104.881C81.8977 105.381 81.5229 105.775 81.0465 106.064C80.5779 106.353 80.043 106.498 79.4417 106.498C78.934 106.498 78.4694 106.384 78.0477 106.158C77.6337 105.931 77.3136 105.611 77.0871 105.197L77.2628 105.01V108.7H76.1734ZM79.3597 105.443C79.7579 105.443 80.1133 105.346 80.4257 105.15C80.738 104.955 80.9801 104.69 81.1519 104.354C81.3316 104.01 81.4214 103.628 81.4214 103.206C81.4214 102.768 81.3316 102.386 81.1519 102.058C80.9801 101.722 80.738 101.456 80.4257 101.261C80.1133 101.058 79.7579 100.957 79.3597 100.957C78.9614 100.957 78.6021 101.054 78.2819 101.25C77.9696 101.445 77.7197 101.714 77.5322 102.058C77.3526 102.394 77.2628 102.776 77.2628 103.206C77.2628 103.628 77.3526 104.01 77.5322 104.354C77.7197 104.69 77.9696 104.955 78.2819 105.15C78.6021 105.346 78.9614 105.443 79.3597 105.443ZM84.2349 108.934C84.0943 108.934 83.9538 108.922 83.8132 108.899C83.6726 108.883 83.5399 108.848 83.4149 108.794V107.821C83.5008 107.829 83.6062 107.845 83.7312 107.868C83.8639 107.892 83.9928 107.903 84.1178 107.903C84.4848 107.903 84.762 107.821 84.9495 107.657C85.1447 107.493 85.3282 107.216 85.5 106.826L85.8983 105.877L85.8749 106.826L83.1806 100.043H84.3638L86.4606 105.432H86.1092L88.1943 100.043H89.4009L86.5543 107.107C86.4216 107.442 86.2498 107.751 86.0389 108.032C85.8359 108.313 85.5859 108.532 85.2892 108.688C84.9924 108.852 84.641 108.934 84.2349 108.934ZM96.5418 106.498C95.9248 106.498 95.3547 106.388 94.8315 106.17C94.3161 105.943 93.8631 105.627 93.4726 105.221C93.09 104.815 92.7932 104.338 92.5823 103.792C92.3715 103.245 92.2661 102.647 92.2661 101.999C92.2661 101.343 92.3715 100.742 92.5823 100.195C92.7932 99.6486 93.09 99.1722 93.4726 98.7661C93.8553 98.36 94.3082 98.0476 94.8315 97.8289C95.3547 97.6025 95.9248 97.4892 96.5418 97.4892C97.1431 97.4892 97.682 97.5946 98.1583 97.8055C98.6425 98.0164 99.0486 98.2897 99.3766 98.6255C99.7124 98.9613 99.9506 99.3206 100.091 99.7032L99.0369 100.184C98.8339 99.6993 98.5176 99.3088 98.0881 99.0121C97.6585 98.7075 97.1431 98.5552 96.5418 98.5552C95.9326 98.5552 95.3899 98.6997 94.9135 98.9886C94.4449 99.2776 94.0779 99.6798 93.8123 100.195C93.5468 100.711 93.4141 101.312 93.4141 101.999C93.4141 102.679 93.5468 103.276 93.8123 103.792C94.0779 104.307 94.4449 104.709 94.9135 104.998C95.3899 105.287 95.9326 105.432 96.5418 105.432C97.1431 105.432 97.6585 105.283 98.0881 104.986C98.5176 104.682 98.8339 104.287 99.0369 103.803L100.091 104.284C99.9506 104.666 99.7124 105.025 99.3766 105.361C99.0486 105.697 98.6425 105.97 98.1583 106.181C97.682 106.392 97.1431 106.498 96.5418 106.498ZM101.524 106.357V97.4892H102.613V106.357H101.524ZM104.304 106.357V100.043H105.393V106.357H104.304ZM104.304 99.0355V97.6298H105.393V99.0355H104.304ZM109.989 106.498C109.38 106.498 108.837 106.353 108.36 106.064C107.884 105.775 107.509 105.381 107.236 104.881C106.962 104.373 106.826 103.807 106.826 103.182C106.826 102.55 106.959 101.988 107.224 101.496C107.497 101.004 107.864 100.617 108.325 100.336C108.794 100.047 109.317 99.9024 109.895 99.9024C110.364 99.9024 110.777 99.9883 111.137 100.16C111.504 100.324 111.812 100.551 112.062 100.84C112.32 101.121 112.515 101.445 112.648 101.812C112.788 102.171 112.859 102.546 112.859 102.936C112.859 103.022 112.851 103.12 112.835 103.229C112.827 103.331 112.816 103.428 112.8 103.522H107.622V102.585H112.168L111.652 103.007C111.722 102.601 111.683 102.237 111.535 101.917C111.387 101.597 111.168 101.343 110.879 101.156C110.59 100.968 110.262 100.875 109.895 100.875C109.528 100.875 109.192 100.968 108.888 101.156C108.583 101.343 108.345 101.613 108.173 101.964C108.009 102.308 107.943 102.718 107.974 103.194C107.943 103.655 108.013 104.061 108.185 104.412C108.364 104.756 108.614 105.025 108.934 105.221C109.262 105.408 109.618 105.502 110 105.502C110.422 105.502 110.777 105.404 111.066 105.209C111.355 105.014 111.59 104.764 111.769 104.459L112.683 104.928C112.558 105.217 112.363 105.482 112.097 105.724C111.84 105.959 111.531 106.146 111.172 106.287C110.82 106.427 110.426 106.498 109.989 106.498ZM114.279 106.357V100.043H115.345V101.273L115.169 101.168C115.326 100.769 115.575 100.461 115.919 100.242C116.271 100.016 116.681 99.9024 117.149 99.9024C117.602 99.9024 118.004 100.004 118.356 100.207C118.715 100.41 118.996 100.691 119.199 101.05C119.41 101.41 119.515 101.816 119.515 102.269V106.357H118.414V102.62C118.414 102.269 118.352 101.972 118.227 101.73C118.102 101.488 117.922 101.3 117.688 101.168C117.461 101.027 117.2 100.957 116.903 100.957C116.606 100.957 116.341 101.027 116.107 101.168C115.88 101.3 115.7 101.492 115.568 101.742C115.435 101.984 115.369 102.276 115.369 102.62V106.357H114.279ZM123.64 106.427C123.023 106.427 122.546 106.252 122.211 105.9C121.883 105.549 121.719 105.053 121.719 104.412V101.086H120.571V100.043H120.805C121.086 100.043 121.309 99.957 121.473 99.7852C121.637 99.6134 121.719 99.3869 121.719 99.1058V98.5904H122.808V100.043H124.225V101.086H122.808V104.377C122.808 104.588 122.839 104.772 122.902 104.928C122.972 105.084 123.085 105.209 123.241 105.303C123.398 105.389 123.605 105.432 123.862 105.432C123.917 105.432 123.983 105.428 124.061 105.42C124.147 105.412 124.225 105.404 124.296 105.396V106.357C124.194 106.38 124.081 106.396 123.956 106.404C123.831 106.419 123.726 106.427 123.64 106.427ZM127.98 106.498C127.347 106.498 126.797 106.341 126.328 106.029C125.859 105.717 125.528 105.295 125.332 104.764L126.199 104.342C126.379 104.717 126.625 105.014 126.937 105.232C127.25 105.451 127.597 105.56 127.98 105.56C128.323 105.56 128.608 105.478 128.835 105.314C129.061 105.15 129.175 104.936 129.175 104.67C129.175 104.483 129.12 104.334 129.011 104.225C128.909 104.108 128.784 104.018 128.636 103.956C128.487 103.885 128.351 103.834 128.226 103.803L127.277 103.534C126.707 103.37 126.289 103.136 126.023 102.831C125.766 102.526 125.637 102.171 125.637 101.765C125.637 101.39 125.731 101.066 125.918 100.793C126.113 100.512 126.375 100.293 126.703 100.137C127.039 99.9805 127.414 99.9024 127.827 99.9024C128.382 99.9024 128.878 100.043 129.315 100.324C129.76 100.605 130.077 101 130.264 101.507L129.374 101.917C129.233 101.589 129.022 101.332 128.741 101.144C128.46 100.949 128.144 100.851 127.792 100.851C127.472 100.851 127.218 100.933 127.031 101.097C126.843 101.253 126.75 101.453 126.75 101.695C126.75 101.874 126.797 102.023 126.89 102.14C126.984 102.249 127.097 102.335 127.23 102.398C127.363 102.452 127.492 102.499 127.617 102.538L128.647 102.843C129.163 102.991 129.561 103.221 129.842 103.534C130.131 103.846 130.276 104.221 130.276 104.658C130.276 105.01 130.178 105.326 129.983 105.607C129.788 105.888 129.518 106.107 129.175 106.263C128.831 106.419 128.433 106.498 127.98 106.498Z" fill="#7E6E6E"/>
<path fill-rule="evenodd" clip-rule="evenodd" d="M104.302 50.279V57.7674C104.302 58.7604 103.908 59.7127 103.206 60.4149C102.504 61.1171 101.551 61.5116 100.558 61.5116H83.4419C82.4489 61.5116 81.4966 61.1171 80.7944 60.4149C80.0922 59.7127 79.6978 58.7604 79.6978 57.7674V50.279C79.6978 47.5837 80.7685 44.9987 82.6744 43.0928C84.5803 41.1869 87.1652 40.1162 89.8605 40.1162H94.1396C96.835 40.1162 99.4199 41.1869 101.326 43.0928C103.232 44.9987 104.302 47.5837 104.302 50.279Z" fill="#FF6174"/>
<path d="M91.9998 39.0465C96.4309 39.0465 100.023 35.4544 100.023 31.0233C100.023 26.5921 96.4309 23 91.9998 23C87.5687 23 83.9766 26.5921 83.9766 31.0233C83.9766 35.4544 87.5687 39.0465 91.9998 39.0465Z" fill="#FF6174"/>
<path d="M108.047 39.0458C111.001 39.0458 113.395 36.6511 113.395 33.697C113.395 30.7429 111.001 28.3481 108.047 28.3481C105.093 28.3481 102.698 30.7429 102.698 33.697C102.698 36.6511 105.093 39.0458 108.047 39.0458Z" fill="#FF6174"/>
<path d="M75.9536 39.0458C78.9077 39.0458 81.3024 36.6511 81.3024 33.697C81.3024 30.7429 78.9077 28.3481 75.9536 28.3481C72.9995 28.3481 70.6047 30.7429 70.6047 33.697C70.6047 36.6511 72.9995 39.0458 75.9536 39.0458Z" fill="#FF6174"/>
<path fill-rule="evenodd" clip-rule="evenodd" d="M77.5817 58.3023H72.7442C71.7514 58.3023 70.7993 57.9086 70.0976 57.2047C69.7495 56.8575 69.4733 56.4449 69.285 55.9908C69.0966 55.5366 68.9998 55.0497 69 54.5581V45.9999C69 44.4402 69.6205 42.9425 70.7223 41.8385C71.8268 40.7362 73.3233 40.1169 74.8837 40.1162H77.0233C78.5167 40.1162 79.9523 40.6853 81.0413 41.7016C78.8081 43.9984 77.5586 47.0755 77.5581 50.279V57.7674C77.5581 57.9471 77.5667 58.1268 77.5817 58.3023ZM102.959 41.7016C104.049 40.6836 105.485 40.117 106.977 40.1162H109.116C110.676 40.1162 112.174 40.7367 113.278 41.8385C114.38 42.9425 115 44.4402 115 45.9999V54.5581C115 55.5508 114.606 56.5029 113.902 57.2047C113.555 57.5528 113.143 57.8289 112.689 58.0173C112.234 58.2056 111.747 58.3025 111.256 58.3023H106.418C106.433 58.1268 106.442 57.9471 106.442 57.7674V50.279C106.441 47.0755 105.192 43.9984 102.959 41.7016Z" fill="#FF6174"/>
<defs>
<filter id="filter0_d_1186_658" x="0.12964" y="0.216783" width="182.741" height="135.741" filterUnits="userSpaceOnUse" color-interpolation-filters="sRGB">
<feFlood flood-opacity="0" result="BackgroundImageFix"/>
<feColorMatrix in="SourceAlpha" type="matrix" values="0 0 0 0 0 0 0 0 0 0 0 0 0 0 0 0 0 0 127 0" result="hardAlpha"/>
<feOffset dy="2.08714"/>
<feGaussianBlur stdDeviation="4.43518"/>
<feComposite in2="hardAlpha" operator="out"/>
<feColorMatrix type="matrix" values="0 0 0 0 0 0 0 0 0 0 0 0 0 0 0 0 0 0 0.25 0"/>
<feBlend mode="normal" in2="BackgroundImageFix" result="effect1_dropShadow_1186_658"/>
<feBlend mode="normal" in="SourceGraphic" in2="effect1_dropShadow_1186_658" result="shape"/>
</filter>
<radialGradient id="paint0_radial_1186_658" cx="0" cy="0" r="1" gradientUnits="userSpaceOnUse" gradientTransform="translate(91.5 66) rotate(90) scale(59 82.5)">
<stop stop-color="white"/>
<stop offset="1" stop-color="white" stop-opacity="0"/>
</radialGradient>
</defs>
</svg>
