<svg width="144" height="137" viewBox="0 0 144 137" fill="none" xmlns="http://www.w3.org/2000/svg">
<g filter="url(#filter0_d_1186_615)">
<rect x="9" y="7" width="126" height="119" rx="12" fill="white"/>
</g>
<path d="M23.6045 96V82.138H28.9074C29.8626 82.138 30.7061 82.3055 31.4379 82.6404C32.1822 82.9753 32.7652 83.4715 33.187 84.1289C33.6087 84.7864 33.8196 85.5989 33.8196 86.5664C33.8196 87.5092 33.6025 88.3154 33.1683 88.9853C32.7342 89.6427 32.1512 90.1389 31.4193 90.4738L34.5825 96H31.3449L27.9213 89.8784L29.7819 90.9762H26.4886V96H23.6045ZM26.4886 88.4643H28.926C29.3354 88.4643 29.6889 88.3837 29.9866 88.2224C30.2843 88.0612 30.5138 87.8379 30.6751 87.5526C30.8487 87.2673 30.9355 86.9386 30.9355 86.5664C30.9355 86.1819 30.8487 85.847 30.6751 85.5617C30.5138 85.2764 30.2843 85.0531 29.9866 84.8918C29.6889 84.7306 29.3354 84.6499 28.926 84.6499H26.4886V88.4643ZM40.1406 96.2233C39.0614 96.2233 38.1249 95.9876 37.331 95.5162C36.5371 95.0325 35.9231 94.3874 35.4889 93.5811C35.0548 92.7748 34.8377 91.8817 34.8377 90.9018C34.8377 89.8846 35.061 88.9791 35.5076 88.1852C35.9665 87.3913 36.5805 86.7649 37.3496 86.3059C38.1187 85.847 38.987 85.6175 39.9545 85.6175C40.7608 85.6175 41.4741 85.7477 42.0943 86.0082C42.7145 86.2563 43.2355 86.6098 43.6573 87.0688C44.0914 87.5278 44.4201 88.0612 44.6434 88.669C44.8667 89.2644 44.9783 89.9156 44.9783 90.6227C44.9783 90.8211 44.9659 91.0196 44.9411 91.2181C44.9287 91.4042 44.8977 91.5654 44.8481 91.7019H37.238V89.6551H43.2665L41.9455 90.6227C42.0695 90.0893 42.0633 89.6179 41.9269 89.2086C41.7904 88.7868 41.5485 88.4581 41.2012 88.2224C40.8663 87.9743 40.4507 87.8503 39.9545 87.8503C39.4708 87.8503 39.0552 87.9681 38.7079 88.2038C38.3606 88.4395 38.1001 88.7868 37.9264 89.2458C37.7528 89.7047 37.6845 90.2629 37.7217 90.9204C37.6721 91.491 37.7404 91.9934 37.9264 92.4275C38.1125 92.8617 38.3978 93.2028 38.7823 93.4509C39.1669 93.6866 39.632 93.8044 40.1778 93.8044C40.674 93.8044 41.0958 93.7052 41.4431 93.5067C41.8028 93.3082 42.0819 93.0353 42.2804 92.688L44.5132 93.7486C44.3147 94.2448 43.9984 94.6789 43.5642 95.0511C43.1425 95.4232 42.6401 95.7147 42.0571 95.9256C41.4741 96.124 40.8353 96.2233 40.1406 96.2233ZM51.6084 100.093C50.8269 100.093 50.1013 99.9632 49.4314 99.7027C48.7616 99.4422 48.1848 99.0763 47.701 98.6049C47.2297 98.146 46.8885 97.6002 46.6777 96.9675L49.264 96.0558C49.4004 96.5272 49.6795 96.8993 50.1013 97.1722C50.523 97.4451 51.0254 97.5816 51.6084 97.5816C52.0674 97.5816 52.4643 97.4947 52.7992 97.3211C53.1342 97.1598 53.3885 96.9179 53.5621 96.5954C53.7482 96.2729 53.8412 95.8946 53.8412 95.4604V93.1346L54.3808 93.8044C54.0335 94.375 53.5869 94.803 53.0411 95.0883C52.4953 95.3612 51.8565 95.4976 51.1246 95.4976C50.1819 95.4976 49.3384 95.2867 48.5941 94.865C47.8499 94.4308 47.2669 93.8416 46.8451 93.0974C46.4234 92.3407 46.2125 91.4848 46.2125 90.5296C46.2125 89.5745 46.4234 88.731 46.8451 87.9991C47.2669 87.2549 47.8437 86.6719 48.5755 86.2501C49.3074 85.8284 50.1385 85.6175 51.0688 85.6175C51.8007 85.6175 52.4395 85.7663 52.9853 86.064C53.5311 86.3493 53.9963 86.7897 54.3808 87.3851L54.0273 88.055V85.8408H56.6322V95.4604C56.6322 96.3535 56.4151 97.1474 55.981 97.8421C55.5468 98.5491 54.9514 99.1011 54.1947 99.4981C53.4505 99.895 52.5884 100.093 51.6084 100.093ZM51.5154 92.9671C51.9868 92.9671 52.3961 92.8679 52.7434 92.6694C53.0908 92.4709 53.3574 92.1918 53.5435 91.8321C53.742 91.4724 53.8412 91.0506 53.8412 90.5669C53.8412 90.0831 53.742 89.6613 53.5435 89.3016C53.345 88.9295 53.0721 88.6442 52.7248 88.4457C52.3775 88.2348 51.9744 88.1294 51.5154 88.1294C51.044 88.1294 50.6223 88.2348 50.2501 88.4457C49.8904 88.6442 49.6051 88.9295 49.3942 89.3016C49.1958 89.6613 49.0965 90.0831 49.0965 90.5669C49.0965 91.0382 49.1958 91.4538 49.3942 91.8135C49.6051 92.1732 49.8904 92.4585 50.2501 92.6694C50.6223 92.8679 51.044 92.9671 51.5154 92.9671ZM62.334 96.2233C61.5153 96.2233 60.8145 96.0496 60.2315 95.7023C59.6608 95.3426 59.2267 94.8464 58.929 94.2138C58.6313 93.5811 58.4824 92.8431 58.4824 91.9996V85.8408H61.2734V91.7763C61.2734 92.1608 61.3479 92.5019 61.4967 92.7997C61.658 93.085 61.8812 93.3082 62.1665 93.4695C62.4518 93.6308 62.7744 93.7114 63.1341 93.7114C63.5062 93.7114 63.8287 93.6308 64.1016 93.4695C64.3869 93.3082 64.604 93.085 64.7529 92.7997C64.9141 92.5019 64.9948 92.1608 64.9948 91.7763V85.8408H67.7858V96H65.1808V93.9905L65.3297 94.437C65.094 95.0449 64.7095 95.4976 64.1761 95.7953C63.6551 96.0806 63.0411 96.2233 62.334 96.2233ZM69.8257 96V81.9148H72.6167V96H69.8257ZM77.8036 96.2233C77.0717 96.2233 76.4391 96.1054 75.9057 95.8698C75.3723 95.6341 74.9629 95.2991 74.6776 94.865C74.3923 94.4184 74.2497 93.8912 74.2497 93.2834C74.2497 92.7128 74.3799 92.2104 74.6404 91.7763C74.9009 91.3297 75.2979 90.9576 75.8312 90.6599C76.377 90.3622 77.0531 90.1513 77.8594 90.0273L80.9667 89.5249V91.5716L78.3618 92.0368C77.9648 92.1112 77.6609 92.2415 77.45 92.4275C77.2391 92.6012 77.1337 92.8555 77.1337 93.1904C77.1337 93.5005 77.2516 93.7424 77.4872 93.9161C77.7229 94.0897 78.0144 94.1765 78.3618 94.1765C78.8207 94.1765 79.2239 94.0773 79.5712 93.8788C79.9185 93.6804 80.1852 93.4137 80.3713 93.0788C80.5697 92.7314 80.669 92.3531 80.669 91.9437V89.3016C80.669 88.9171 80.5139 88.5945 80.2038 88.3341C79.9061 88.0736 79.4968 87.9433 78.9758 87.9433C78.4796 87.9433 78.0392 88.0798 77.6547 88.3527C77.2826 88.6256 77.0097 88.9853 76.836 89.4318L74.6032 88.3713C74.8017 87.8007 75.118 87.3107 75.5521 86.9013C75.9863 86.492 76.5073 86.1757 77.1151 85.9524C77.7229 85.7291 78.3866 85.6175 79.106 85.6175C79.9619 85.6175 80.7186 85.7725 81.376 86.0826C82.0335 86.3928 82.542 86.8269 82.9018 87.3851C83.2739 87.9309 83.46 88.5697 83.46 89.3016V96H80.855V94.3626L81.4877 94.251C81.19 94.6975 80.8612 95.0697 80.5015 95.3674C80.1418 95.6527 79.7386 95.8636 79.2921 96C78.8455 96.1489 78.3493 96.2233 77.8036 96.2233ZM90.2187 96.1116C88.9907 96.1116 88.0355 95.7829 87.3533 95.1255C86.6834 94.4556 86.3485 93.5253 86.3485 92.3345V88.2596H84.6367V85.8408H84.7297C85.2507 85.8408 85.6477 85.7105 85.9206 85.45C86.2059 85.1895 86.3485 84.7988 86.3485 84.2778V83.5335H89.1395V85.8408H91.5212V88.2596H89.1395V92.1484C89.1395 92.4957 89.2015 92.7872 89.3256 93.0229C89.4496 93.2462 89.6419 93.4137 89.9024 93.5253C90.1629 93.637 90.4854 93.6928 90.8699 93.6928C90.9568 93.6928 91.056 93.6866 91.1676 93.6742C91.2793 93.6618 91.3971 93.6494 91.5212 93.637V96C91.3351 96.0248 91.1242 96.0496 90.8885 96.0744C90.6529 96.0992 90.4296 96.1116 90.2187 96.1116ZM98.1991 96.2233C97.1943 96.2233 96.2764 95.9938 95.4453 95.5348C94.6266 95.0759 93.9692 94.4494 93.473 93.6556C92.9892 92.8493 92.7473 91.9375 92.7473 90.9204C92.7473 89.8908 92.9892 88.9791 93.473 88.1852C93.9692 87.3913 94.6266 86.7649 95.4453 86.3059C96.2764 85.847 97.1943 85.6175 98.1991 85.6175C99.2038 85.6175 100.116 85.847 100.934 86.3059C101.753 86.7649 102.404 87.3913 102.888 88.1852C103.384 88.9791 103.632 89.8908 103.632 90.9204C103.632 91.9375 103.384 92.8493 102.888 93.6556C102.404 94.4494 101.753 95.0759 100.934 95.5348C100.116 95.9938 99.2038 96.2233 98.1991 96.2233ZM98.1991 93.7114C98.7077 93.7114 99.148 93.5935 99.5201 93.3579C99.9047 93.1222 100.202 92.7935 100.413 92.3717C100.637 91.9499 100.748 91.4662 100.748 90.9204C100.748 90.3746 100.637 89.897 100.413 89.4877C100.202 89.0659 99.9047 88.7372 99.5201 88.5015C99.148 88.2534 98.7077 88.1294 98.1991 88.1294C97.6905 88.1294 97.2439 88.2534 96.8594 88.5015C96.4749 88.7372 96.1709 89.0659 95.9477 89.4877C95.7368 89.897 95.6314 90.3746 95.6314 90.9204C95.6314 91.4662 95.7368 91.9499 95.9477 92.3717C96.1709 92.7935 96.4749 93.1222 96.8594 93.3579C97.2439 93.5935 97.6905 93.7114 98.1991 93.7114ZM105.276 96V85.8408H107.881V88.2782L107.695 87.9247C107.919 87.0688 108.285 86.492 108.793 86.1943C109.314 85.8842 109.928 85.7291 110.635 85.7291H111.231V88.148H110.356C109.674 88.148 109.122 88.3589 108.7 88.7806C108.278 89.19 108.067 89.773 108.067 90.5296V96H105.276ZM114.035 100.131C113.738 100.131 113.446 100.106 113.161 100.056C112.888 100.007 112.646 99.926 112.435 99.8144V97.5257C112.609 97.5754 112.814 97.6188 113.049 97.656C113.285 97.6932 113.502 97.7118 113.7 97.7118C114.246 97.7118 114.637 97.5816 114.873 97.3211C115.108 97.0606 115.301 96.7629 115.449 96.428L116.138 94.8464L116.101 97.1722L111.635 85.8408H114.631L117.589 93.8974H116.473L119.431 85.8408H122.427L118.073 96.9489C117.8 97.656 117.465 98.2452 117.068 98.7166C116.671 99.1879 116.219 99.5415 115.71 99.7772C115.214 100.013 114.656 100.131 114.035 100.131Z" fill="#131313"/>
<path d="M64.0745 111.923V103.196H67.1554C67.7333 103.196 68.2409 103.305 68.6783 103.524C69.1156 103.742 69.4553 104.055 69.6974 104.461C69.9473 104.867 70.0723 105.343 70.0723 105.89C70.0723 106.507 69.9161 107.03 69.6037 107.46C69.2913 107.889 68.8696 108.198 68.3385 108.385L70.3651 111.923H69.0297L66.8977 108.139L67.6591 108.584H65.2225V111.923H64.0745ZM65.2225 107.53H67.1905C67.5342 107.53 67.8348 107.464 68.0925 107.331C68.3503 107.198 68.5494 107.007 68.69 106.757C68.8384 106.507 68.9125 106.218 68.9125 105.89C68.9125 105.554 68.8384 105.265 68.69 105.023C68.5494 104.773 68.3503 104.582 68.0925 104.449C67.8348 104.316 67.5342 104.25 67.1905 104.25H65.2225V107.53ZM71.6705 111.923V103.196H75.3371C75.8603 103.196 76.3094 103.289 76.6842 103.477C77.0669 103.664 77.3598 103.93 77.5628 104.273C77.7737 104.609 77.8791 105.011 77.8791 105.48C77.8791 105.91 77.7659 106.3 77.5394 106.651C77.3207 106.995 76.9966 107.264 76.5671 107.46L76.5554 107.026C76.9302 107.167 77.2387 107.354 77.4808 107.589C77.7307 107.815 77.9181 108.081 78.0431 108.385C78.1681 108.682 78.2305 108.998 78.2305 109.334C78.2305 110.138 77.9728 110.771 77.4574 111.232C76.942 111.692 76.2391 111.923 75.3488 111.923H71.6705ZM72.8185 110.869H75.3957C75.9033 110.869 76.3094 110.732 76.614 110.459C76.9185 110.185 77.0708 109.814 77.0708 109.346C77.0708 108.877 76.9185 108.506 76.614 108.233C76.3094 107.952 75.9033 107.811 75.3957 107.811H72.8185V110.869ZM72.8185 106.78H75.3137C75.7354 106.78 76.0751 106.659 76.3328 106.417C76.5905 106.167 76.7194 105.851 76.7194 105.468C76.7194 105.07 76.5905 104.765 76.3328 104.555C76.0751 104.344 75.7354 104.238 75.3137 104.238H72.8185V106.78ZM79.7813 111.923V103.196H80.9293V111.923H79.7813Z" fill="#7E6E6E"/>
<path d="M79.0708 51.5054C72.7769 49.001 65.5121 53.9992 65.6614 60.7762C65.6462 69.5524 76.3857 73.9912 82.5851 67.7896C87.6816 62.8203 85.6863 53.9214 79.0715 51.5062L79.0708 51.5054ZM74.9772 60.0148H76.1662C79.4328 60.0834 79.5799 64.8385 76.3339 65.1152V65.6792C76.3339 66.0983 75.9909 66.4413 75.5717 66.4413C75.1525 66.4413 74.8096 66.0983 74.8096 65.6792V65.1228H73.1862C72.184 65.1022 72.1832 63.613 73.1862 63.5985H76.1662C77.5205 63.5733 77.519 61.559 76.1662 61.5392H74.9772C71.7107 61.4706 71.5628 56.7155 74.8096 56.4396V55.8756C74.8096 55.4564 75.1525 55.1134 75.5717 55.1134C75.9909 55.1134 76.3339 55.4564 76.3339 55.8756V56.432H77.9573C78.9595 56.4518 78.9603 57.941 77.9573 57.9563H74.9772C73.6229 57.9814 73.6244 59.9966 74.9772 60.0148Z" fill="#FF6174"/>
<path d="M61.8645 51.6658C63.0891 51.6046 64.3164 51.6173 65.5396 51.7039C66.4541 51.7725 67.3382 51.902 68.1919 52.0621C68.5577 51.7496 68.9388 51.4524 69.358 51.1856C71.1955 49.9814 73.3532 49.3488 75.587 49.3488C77.164 49.3447 78.7245 49.6692 80.1691 50.3015C82.1278 47.8642 83.2017 44.8674 83.1948 41.7174C83.2223 29.7592 68.6758 23.4981 60.0269 31.7606C54.265 37.021 54.4182 46.7247 60.1793 51.8106C60.8653 51.7268 61.4529 51.6886 61.8645 51.6658ZM75.5718 46.1539C75.4643 49.8275 70.7908 49.8183 70.6849 46.1539C70.7938 42.4788 75.462 42.4719 75.5718 46.1539ZM72.5377 34.8862C73.0536 34.0311 74.3462 34.7643 73.8562 35.6484L66.4084 48.5478C65.8932 49.409 64.6006 48.6576 65.0899 47.7857L72.5377 34.8862ZM65.8216 34.5052C69.0455 34.6218 69.0378 39.9492 65.8216 40.0628C62.5938 39.9507 62.587 34.6187 65.8216 34.5052Z" fill="#FF6174"/>
<path d="M65.8214 38.5378C67.0179 38.492 67.0256 36.0791 65.8214 36.0303C64.6095 36.063 64.6172 38.508 65.8214 38.5378ZM72.2097 46.1547C72.2494 47.7918 74.0115 47.7987 74.0465 46.154C73.9977 44.494 72.2631 44.5024 72.2097 46.1547ZM65.3785 65.96C64.0554 66.274 62.5761 66.069 61.2241 66.0362C58.8431 65.8587 56.2403 65.396 54.2023 64.2147C53.9432 64.0609 53.696 63.8876 53.4631 63.6964V64.5881C53.4631 67.088 58.4491 68.3989 63.3741 68.3989C64.5859 68.3989 65.7596 68.3227 66.8571 68.1779C66.2719 67.5046 65.775 66.7592 65.3785 65.96ZM54.9881 62.9107C56.956 64.0264 59.513 64.4121 61.8033 64.5417C62.7651 64.5988 63.8131 64.6026 64.7764 64.5569C64.7612 64.5035 64.7383 64.4502 64.7231 64.3968C64.4884 63.7118 64.3249 63.0043 64.2353 62.2857C63.9503 62.3002 63.666 62.3009 63.3741 62.3009C59.1175 62.2194 55.8387 61.6546 53.4631 59.8765C53.4615 61.1371 53.3114 61.8391 54.9874 62.9099L54.9881 62.9107ZM54.9881 59.0915C56.9362 60.2911 60.8552 60.8848 64.1362 60.7606C64.121 58.5603 64.7612 56.4278 65.973 54.5475C66.2444 54.1383 66.5286 53.7557 66.8495 53.3814C65.6978 53.2246 64.5365 53.1482 63.3741 53.1528C59.4269 53.056 53.4798 54.3479 53.4783 56.8111C53.383 57.741 53.992 58.4841 54.9881 59.0915Z" fill="#FF6174"/>
<defs>
<filter id="filter0_d_1186_615" x="0.12964" y="0.216783" width="143.741" height="136.741" filterUnits="userSpaceOnUse" color-interpolation-filters="sRGB">
<feFlood flood-opacity="0" result="BackgroundImageFix"/>
<feColorMatrix in="SourceAlpha" type="matrix" values="0 0 0 0 0 0 0 0 0 0 0 0 0 0 0 0 0 0 127 0" result="hardAlpha"/>
<feOffset dy="2.08714"/>
<feGaussianBlur stdDeviation="4.43518"/>
<feComposite in2="hardAlpha" operator="out"/>
<feColorMatrix type="matrix" values="0 0 0 0 0 0 0 0 0 0 0 0 0 0 0 0 0 0 0.25 0"/>
<feBlend mode="normal" in2="BackgroundImageFix" result="effect1_dropShadow_1186_615"/>
<feBlend mode="normal" in="SourceGraphic" in2="effect1_dropShadow_1186_615" result="shape"/>
</filter>
</defs>
</svg>
