<svg width="351" height="351" viewBox="0 0 351 351" fill="none" xmlns="http://www.w3.org/2000/svg">
<path d="M325.929 83.5715H292.5C290.284 83.5715 288.158 84.452 286.591 86.0193C285.023 87.5866 284.143 89.7122 284.143 91.9287C284.143 94.1451 285.023 96.2708 286.591 97.8381C288.158 99.4053 290.284 100.286 292.5 100.286H325.929C328.144 100.289 330.268 101.17 331.835 102.737C333.401 104.303 334.283 106.427 334.286 108.643V286.929C334.283 289.144 333.401 291.268 331.835 292.835C330.268 294.401 328.144 295.283 325.929 295.286H25.0714C22.8559 295.283 20.7319 294.401 19.1653 292.835C17.5987 291.268 16.7172 289.144 16.7143 286.929V108.643C16.7172 106.427 17.5987 104.303 19.1653 102.737C20.7319 101.17 22.8559 100.289 25.0714 100.286H58.5C60.7165 100.286 62.8421 99.4053 64.4094 97.8381C65.9767 96.2708 66.8571 94.1451 66.8571 91.9287C66.8571 89.7122 65.9767 87.5866 64.4094 86.0193C62.8421 84.452 60.7165 83.5715 58.5 83.5715H25.0714C18.4243 83.5789 12.0516 86.2227 7.3514 90.9229C2.65119 95.6231 0.00737338 101.996 0 108.643V286.929C0.00737338 293.576 2.65119 299.948 7.3514 304.649C12.0516 309.349 18.4243 311.993 25.0714 312H111.429V334.286H80.7857C78.5693 334.286 76.4436 335.166 74.8763 336.734C73.3091 338.301 72.4286 340.426 72.4286 342.643C72.4286 344.859 73.3091 346.985 74.8763 348.552C76.4436 350.12 78.5693 351 80.7857 351H270.214C272.431 351 274.556 350.12 276.124 348.552C277.691 346.985 278.571 344.859 278.571 342.643C278.571 340.426 277.691 338.301 276.124 336.734C274.556 335.166 272.431 334.286 270.214 334.286H239.571V312H325.929C332.576 311.993 338.948 309.349 343.649 304.649C348.349 299.948 350.993 293.576 351 286.929V108.643C350.993 101.996 348.349 95.6231 343.649 90.9229C338.948 86.2227 332.576 83.5789 325.929 83.5715ZM222.857 334.286H128.143V312H222.857V334.286Z" fill="black"/>
<path d="M64.9517 234.947L76.0946 257.233C76.7103 258.466 77.6214 259.527 78.7468 260.323C79.8721 261.119 81.1768 261.624 82.5445 261.793C83.9123 261.962 85.3007 261.791 86.586 261.293C87.8714 260.796 89.0139 259.989 89.9117 258.943L123.34 219.943C124.055 219.11 124.599 218.145 124.941 217.102C125.282 216.058 125.415 214.958 125.331 213.864C125.248 212.769 124.95 211.702 124.454 210.723C123.958 209.744 123.273 208.872 122.44 208.157C121.608 207.442 120.642 206.898 119.599 206.557C118.556 206.215 117.455 206.082 116.361 206.166C115.266 206.249 114.199 206.548 113.22 207.044C112.241 207.54 111.369 208.224 110.654 209.057L85.4156 238.507L79.8999 227.476C78.898 225.511 77.1604 224.023 75.0656 223.334C72.9708 222.645 70.6886 222.812 68.7164 223.798C66.7442 224.785 65.2418 226.511 64.5366 228.6C63.8314 230.69 63.9806 232.973 64.9517 234.953V234.947ZM119.786 253.5C119.786 255.717 120.666 257.842 122.233 259.409C123.801 260.977 125.926 261.857 128.143 261.857H278.571C280.788 261.857 282.914 260.977 284.481 259.409C286.048 257.842 286.929 255.717 286.929 253.5C286.929 251.284 286.048 249.158 284.481 247.591C282.914 246.023 280.788 245.143 278.571 245.143H128.143C125.926 245.143 123.801 246.023 122.233 247.591C120.666 249.158 119.786 251.284 119.786 253.5Z" fill="black"/>
<path d="M242.357 0H108.643C101.996 0.00737338 95.623 2.65119 90.9228 7.3514C86.2226 12.0516 83.5788 18.4243 83.5714 25.0714V158.786C83.5788 165.433 86.2226 171.806 90.9228 176.506C95.623 181.206 101.996 183.85 108.643 183.857H242.357C249.004 183.85 255.377 181.206 260.077 176.506C264.777 171.806 267.421 165.433 267.429 158.786V25.0714C267.421 18.4243 264.777 12.0516 260.077 7.3514C255.377 2.65119 249.004 0.00737338 242.357 0ZM224.439 141.141H126.561C124.344 141.141 122.218 140.261 120.651 138.693C119.084 137.126 118.203 135 118.203 132.784C118.203 130.567 119.084 128.442 120.651 126.874C122.218 125.307 124.344 124.427 126.561 124.427H224.439C226.656 124.427 228.782 125.307 230.349 126.874C231.916 128.442 232.797 130.567 232.797 132.784C232.797 135 231.916 137.126 230.349 138.693C228.782 140.261 226.656 141.141 224.439 141.141ZM224.439 100.286H126.561C124.344 100.286 122.218 99.4052 120.651 97.838C119.084 96.2707 118.203 94.145 118.203 91.9286C118.203 89.7121 119.084 87.5864 120.651 86.0192C122.218 84.4519 124.344 83.5714 126.561 83.5714H224.439C226.656 83.5714 228.782 84.4519 230.349 86.0192C231.916 87.5864 232.797 89.7121 232.797 91.9286C232.797 94.145 231.916 96.2707 230.349 97.838C228.782 99.4052 226.656 100.286 224.439 100.286ZM224.439 59.4304H126.561C124.344 59.4304 122.218 58.5499 120.651 56.9827C119.084 55.4154 118.203 53.2897 118.203 51.0733C118.203 48.8568 119.084 46.7312 120.651 45.1639C122.218 43.5966 124.344 42.7161 126.561 42.7161H224.439C226.656 42.7161 228.782 43.5966 230.349 45.1639C231.916 46.7312 232.797 48.8568 232.797 51.0733C232.797 53.2897 231.916 55.4154 230.349 56.9827C228.782 58.5499 226.656 59.4304 224.439 59.4304Z" fill="#D2CA00"/>
</svg>
