<svg width="171" height="154" viewBox="0 0 171 154" fill="none" xmlns="http://www.w3.org/2000/svg">
<g filter="url(#filter0_d_1186_604)">
<rect x="4" width="163" height="146" rx="12" fill="white"/>
</g>
<path d="M74.9575 35.633L71.2255 35.9214C70.1871 36.0016 69.2622 36.5459 68.6879 37.4146L64.3838 43.9242C63.9483 44.583 63.879 45.4074 64.1985 46.1296C64.518 46.8518 65.1747 47.3551 65.955 47.476L69.3721 48.0052C70.1715 43.7632 72.085 39.5316 74.9575 35.633ZM83.0717 61.7047L83.601 65.1218C83.7219 65.9022 84.2252 66.5588 84.9473 66.8783C85.2416 67.009 85.5601 67.0766 85.8822 67.0768C86.3342 67.0765 86.7762 66.943 87.1528 66.6929L93.6625 62.389C94.5312 61.8146 95.0755 60.8896 95.1556 59.8513L95.4439 56.1193C91.5453 58.9919 87.3138 60.9054 83.0717 61.7047ZM81.7865 59.3363C81.9052 59.3363 82.0245 59.3265 82.1435 59.3067C83.9208 59.0095 85.6337 58.5089 87.2678 57.8537L73.2233 43.8092C72.5681 45.4431 72.0675 47.1561 71.7703 48.9334C71.6532 49.634 71.8882 50.3477 72.3904 50.85L80.2269 58.6866C80.6439 59.1035 81.2067 59.3363 81.7865 59.3363ZM103.642 43.0987C107.079 36.4543 107.206 29.4328 107.027 26.1398C106.965 25.0115 106.065 24.1119 104.937 24.0504C104.308 24.0165 103.679 23.9997 103.049 24C99.367 24 93.5406 24.5577 87.9782 27.4349C83.5576 29.7214 77.7611 34.756 74.3412 41.3725C74.3816 41.404 74.421 41.4375 74.4582 41.4747L89.6023 56.6188C89.6395 56.656 89.6729 56.6954 89.7045 56.7358C96.3209 53.3158 101.356 47.5192 103.642 43.0987ZM89.0465 33.1067C91.5067 30.6465 95.5099 30.6463 97.9702 33.1067C99.162 34.2984 99.8184 35.8831 99.8184 37.5685C99.8184 39.254 99.162 40.8387 97.9702 42.0304C96.7402 43.2604 95.124 43.8755 93.5084 43.8756C91.8923 43.8757 90.2768 43.2607 89.0465 42.0304C87.8547 40.8387 87.1983 39.254 87.1983 37.5685C87.1983 35.8831 87.8547 34.2984 89.0465 33.1067Z" fill="#FF6174"/>
<path d="M90.831 40.2456C92.3071 41.7217 94.7091 41.7218 96.1852 40.2456C96.9003 39.5304 97.2941 38.5797 97.2941 37.5684C97.2941 36.5571 96.9003 35.6064 96.1852 34.8914C95.4472 34.1533 94.4777 33.7842 93.5081 33.7842C92.5386 33.7842 91.5691 34.1533 90.831 34.8914C90.116 35.6064 89.7221 36.5571 89.7221 37.5684C89.7221 38.5797 90.1159 39.5305 90.831 40.2456ZM65.2874 59.4993C65.6104 59.4993 65.9334 59.3761 66.1797 59.1296L70.3 55.0093C70.7929 54.5164 70.7929 53.7174 70.3 53.2246C69.8072 52.7317 69.0081 52.7317 68.5153 53.2246L64.395 57.3449C63.9021 57.8377 63.9021 58.6367 64.395 59.1296C64.512 59.247 64.6511 59.34 64.8043 59.4035C64.9574 59.4669 65.1216 59.4995 65.2874 59.4993ZM74.076 57.0006C73.5832 56.5077 72.7841 56.5077 72.2913 57.0006L64.3696 64.9222C63.8768 65.4151 63.8768 66.2141 64.3696 66.7069C64.6161 66.9534 64.9391 67.0765 65.2621 67.0765C65.585 67.0765 65.908 66.9534 66.1544 66.7069L74.0759 58.7853C74.5689 58.2925 74.5689 57.4934 74.076 57.0006ZM76.0672 60.7766L71.947 64.8969C71.4541 65.3897 71.4541 66.1888 71.947 66.6816C72.1934 66.9281 72.5164 67.0513 72.8393 67.0513C73.1622 67.0513 73.4853 66.9281 73.7316 66.6816L77.8519 62.5613C78.3448 62.0685 78.3448 61.2695 77.8519 60.7766C77.3592 60.2837 76.5601 60.2837 76.0672 60.7766Z" fill="#FF6174"/>
<path d="M56.2071 101V98.2854L60.7314 93.6254C61.6212 92.7055 62.2923 91.9816 62.7447 91.4537C63.2123 90.9108 63.529 90.4584 63.6948 90.0965C63.8758 89.7345 63.9663 89.3801 63.9663 89.0332C63.9663 88.4149 63.7627 87.9323 63.3555 87.5855C62.9634 87.2235 62.4658 87.0426 61.8625 87.0426C61.2442 87.0426 60.6937 87.2235 60.2111 87.5855C59.7286 87.9323 59.3741 88.4677 59.1479 89.1916L56.094 88.1962C56.275 87.3216 56.652 86.56 57.2251 85.9115C57.7982 85.263 58.4919 84.7653 59.3063 84.4185C60.1207 84.0565 60.9727 83.8755 61.8625 83.8755C62.9785 83.8755 63.9588 84.0716 64.8033 84.4637C65.6478 84.8558 66.3039 85.4063 66.7714 86.1151C67.2389 86.8239 67.4726 87.6533 67.4726 88.6034C67.4726 89.2067 67.3671 89.8024 67.1559 90.3905C66.9448 90.9636 66.6206 91.5518 66.1832 92.155C65.7609 92.7432 65.2105 93.3841 64.5318 94.0778L60.6636 98.0592H67.631V101H56.2071ZM76.6502 101.271C75.308 101.271 74.1242 100.91 73.0987 100.186C72.0882 99.4617 71.2965 98.4438 70.7234 97.1317C70.1503 95.8197 69.8638 94.2965 69.8638 92.5622C69.8638 90.8128 70.1428 89.2896 70.7008 87.9927C71.2739 86.6957 72.0656 85.6853 73.076 84.9614C74.1015 84.2375 75.2854 83.8755 76.6276 83.8755C78 83.8755 79.1914 84.2375 80.2018 84.9614C81.2273 85.6853 82.0191 86.7032 82.5771 88.0153C83.1501 89.3122 83.4367 90.8279 83.4367 92.5622C83.4367 94.2965 83.1501 95.8197 82.5771 97.1317C82.0191 98.4287 81.2273 99.4467 80.2018 100.186C79.1914 100.91 78.0075 101.271 76.6502 101.271ZM76.6729 98.1045C77.3666 98.1045 77.9547 97.8858 78.4373 97.4484C78.9199 97.0111 79.2894 96.3777 79.5458 95.5482C79.8022 94.7188 79.9303 93.7234 79.9303 92.5622C79.9303 91.401 79.8022 90.4132 79.5458 89.5988C79.2894 88.7693 78.9124 88.1359 78.4147 87.6986C77.9321 87.2612 77.3364 87.0426 76.6276 87.0426C75.9339 87.0426 75.3457 87.2612 74.8631 87.6986C74.3805 88.1359 74.0111 88.7693 73.7547 89.5988C73.4983 90.4132 73.3701 91.401 73.3701 92.5622C73.3701 93.7083 73.4983 94.6962 73.7547 95.5256C74.0111 96.3551 74.3805 96.996 74.8631 97.4484C75.3608 97.8858 75.9641 98.1045 76.6729 98.1045ZM92.4897 101.271C91.1475 101.271 89.9636 100.91 88.9381 100.186C87.9277 99.4617 87.1359 98.4438 86.5629 97.1317C85.9898 95.8197 85.7032 94.2965 85.7032 92.5622C85.7032 90.8128 85.9822 89.2896 86.5402 87.9927C87.1133 86.6957 87.9051 85.6853 88.9155 84.9614C89.941 84.2375 91.1249 83.8755 92.4671 83.8755C93.8394 83.8755 95.0308 84.2375 96.0413 84.9614C97.0668 85.6853 97.8585 86.7032 98.4165 88.0153C98.9896 89.3122 99.2761 90.8279 99.2761 92.5622C99.2761 94.2965 98.9896 95.8197 98.4165 97.1317C97.8585 98.4287 97.0668 99.4467 96.0413 100.186C95.0308 100.91 93.847 101.271 92.4897 101.271ZM92.5123 98.1045C93.206 98.1045 93.7942 97.8858 94.2768 97.4484C94.7594 97.0111 95.1289 96.3777 95.3852 95.5482C95.6416 94.7188 95.7698 93.7234 95.7698 92.5622C95.7698 91.401 95.6416 90.4132 95.3852 89.5988C95.1289 88.7693 94.7518 88.1359 94.2542 87.6986C93.7716 87.2612 93.1759 87.0426 92.4671 87.0426C91.7733 87.0426 91.1852 87.2612 90.7026 87.6986C90.22 88.1359 89.8505 88.7693 89.5941 89.5988C89.3378 90.4132 89.2096 91.401 89.2096 92.5622C89.2096 93.7083 89.3378 94.6962 89.5941 95.5256C89.8505 96.3551 90.22 96.996 90.7026 97.4484C91.2003 97.8858 91.8035 98.1045 92.5123 98.1045ZM106.678 101V96.7472H102.425V93.9195H106.678V89.6893H109.505V93.9195H113.736V96.7472H109.505V101H106.678Z" fill="#131313"/>
<path d="M63.74 119.155C63.1282 119.155 62.568 119.043 62.0596 118.819C61.5511 118.586 61.1202 118.272 60.7669 117.875C60.4136 117.479 60.1594 117.035 60.0042 116.544L61.103 116.092C61.3357 116.712 61.6804 117.19 62.1371 117.526C62.6025 117.854 63.1454 118.018 63.7659 118.018C64.1451 118.018 64.4768 117.957 64.7612 117.837C65.0456 117.716 65.2654 117.548 65.4205 117.332C65.5842 117.108 65.6661 116.85 65.6661 116.557C65.6661 116.152 65.5497 115.833 65.3171 115.6C65.093 115.359 64.7612 115.178 64.3217 115.057L62.5508 114.514C61.8527 114.299 61.3184 113.959 60.9479 113.493C60.5773 113.028 60.392 112.494 60.392 111.89C60.392 111.365 60.517 110.904 60.7669 110.507C61.0254 110.102 61.3788 109.788 61.8269 109.564C62.2836 109.331 62.8007 109.215 63.3781 109.215C63.9555 109.215 64.4768 109.318 64.9422 109.525C65.4162 109.732 65.8169 110.012 66.1444 110.365C66.4718 110.71 66.7131 111.106 66.8682 111.554L65.7824 112.007C65.5756 111.464 65.2654 111.054 64.8517 110.779C64.4381 110.494 63.9512 110.352 63.391 110.352C63.0463 110.352 62.7404 110.412 62.4732 110.533C62.2147 110.645 62.0122 110.813 61.8657 111.037C61.7278 111.253 61.6588 111.511 61.6588 111.813C61.6588 112.166 61.7709 112.481 61.9949 112.756C62.219 113.032 62.5594 113.243 63.0161 113.39L64.632 113.868C65.3903 114.101 65.9634 114.433 66.3512 114.864C66.739 115.294 66.9329 115.829 66.9329 116.466C66.9329 116.992 66.795 117.457 66.5192 117.862C66.2521 118.267 65.8772 118.586 65.3946 118.819C64.9206 119.043 64.3691 119.155 63.74 119.155ZM71.4764 119.078C70.7956 119.078 70.2699 118.884 69.8993 118.496C69.5374 118.108 69.3564 117.561 69.3564 116.854V113.183H68.0896V112.033H68.3481C68.6584 112.033 68.904 111.938 69.0849 111.748C69.2659 111.559 69.3564 111.309 69.3564 110.998V110.43H70.5586V112.033H72.1227V113.183H70.5586V116.815C70.5586 117.048 70.593 117.251 70.662 117.423C70.7395 117.595 70.8645 117.733 71.0369 117.837C71.2092 117.931 71.4376 117.979 71.722 117.979C71.7823 117.979 71.8555 117.974 71.9417 117.966C72.0365 117.957 72.1227 117.949 72.2002 117.94V119C72.0882 119.026 71.9633 119.043 71.8254 119.052C71.6875 119.069 71.5712 119.078 71.4764 119.078ZM75.7247 119.155C75.2679 119.155 74.8629 119.073 74.5096 118.91C74.1648 118.737 73.8934 118.504 73.6952 118.211C73.497 117.91 73.3979 117.565 73.3979 117.177C73.3979 116.807 73.4754 116.475 73.6306 116.182C73.7943 115.88 74.0442 115.626 74.3803 115.419C74.725 115.213 75.1559 115.066 75.6729 114.98L78.2583 114.553V115.562L75.9444 115.949C75.4963 116.027 75.1688 116.169 74.962 116.376C74.7638 116.583 74.6647 116.837 74.6647 117.139C74.6647 117.423 74.7767 117.66 75.0008 117.85C75.2334 118.039 75.5221 118.134 75.8668 118.134C76.3063 118.134 76.6855 118.043 77.0044 117.862C77.3319 117.673 77.5861 117.419 77.767 117.1C77.9566 116.781 78.0514 116.428 78.0514 116.04V114.269C78.0514 113.89 77.9092 113.584 77.6249 113.351C77.3491 113.11 76.9828 112.989 76.5261 112.989C76.1297 112.989 75.7764 113.093 75.4661 113.299C75.1645 113.498 74.9404 113.765 74.7939 114.101L73.7469 113.558C73.8762 113.239 74.083 112.955 74.3674 112.705C74.6517 112.446 74.9835 112.244 75.3627 112.097C75.7419 111.951 76.1383 111.877 76.552 111.877C77.0862 111.877 77.5559 111.981 77.9609 112.188C78.366 112.386 78.6805 112.666 78.9046 113.028C79.1373 113.381 79.2536 113.795 79.2536 114.269V119H78.0773V117.681L78.297 117.759C78.1505 118.035 77.9523 118.276 77.7024 118.483C77.4525 118.69 77.1595 118.853 76.8234 118.974C76.4873 119.095 76.1211 119.155 75.7247 119.155ZM81.1176 119V112.033H82.2939V113.312L82.1646 113.131C82.3283 112.735 82.5783 112.442 82.9143 112.252C83.2504 112.054 83.6598 111.955 84.1424 111.955H84.5689V113.093H83.9614C83.4702 113.093 83.0738 113.248 82.7721 113.558C82.4705 113.86 82.3197 114.29 82.3197 114.851V119H81.1176ZM88.5308 119.078C87.85 119.078 87.3243 118.884 86.9538 118.496C86.5918 118.108 86.4109 117.561 86.4109 116.854V113.183H85.1441V112.033H85.4026C85.7128 112.033 85.9584 111.938 86.1394 111.748C86.3204 111.559 86.4109 111.309 86.4109 110.998V110.43H87.613V112.033H89.1772V113.183H87.613V116.815C87.613 117.048 87.6475 117.251 87.7165 117.423C87.794 117.595 87.919 117.733 88.0913 117.837C88.2637 117.931 88.492 117.979 88.7764 117.979C88.8368 117.979 88.91 117.974 88.9962 117.966C89.091 117.957 89.1772 117.949 89.2547 117.94V119C89.1427 119.026 89.0177 119.043 88.8798 119.052C88.742 119.069 88.6256 119.078 88.5308 119.078ZM93.2941 119.155C92.7942 119.155 92.3418 119.039 91.9368 118.806C91.5404 118.573 91.2301 118.25 91.0061 117.837C90.7906 117.414 90.6829 116.932 90.6829 116.389V112.033H91.8851V116.26C91.8851 116.604 91.954 116.906 92.0919 117.164C92.2384 117.423 92.4366 117.625 92.6865 117.772C92.945 117.918 93.238 117.992 93.5655 117.992C93.893 117.992 94.1817 117.918 94.4316 117.772C94.6901 117.625 94.8883 117.414 95.0262 117.139C95.1727 116.863 95.246 116.535 95.246 116.156V112.033H96.4611V119H95.2847V117.643L95.4786 117.759C95.3149 118.199 95.0348 118.543 94.6384 118.793C94.2506 119.034 93.8025 119.155 93.2941 119.155ZM98.3235 121.585V112.033H99.4998V113.532L99.3447 113.235C99.6032 112.821 99.9566 112.494 100.405 112.252C100.853 112.002 101.366 111.877 101.943 111.877C102.598 111.877 103.184 112.037 103.701 112.356C104.227 112.675 104.64 113.11 104.942 113.661C105.244 114.204 105.394 114.825 105.394 115.523C105.394 116.204 105.244 116.82 104.942 117.371C104.64 117.923 104.227 118.358 103.701 118.677C103.184 118.996 102.594 119.155 101.93 119.155C101.37 119.155 100.857 119.03 100.392 118.78C99.935 118.53 99.5817 118.177 99.3318 117.72L99.5257 117.513V121.585H98.3235ZM101.84 117.992C102.279 117.992 102.671 117.884 103.016 117.669C103.361 117.453 103.628 117.16 103.817 116.79C104.015 116.41 104.115 115.988 104.115 115.523C104.115 115.04 104.015 114.618 103.817 114.256C103.628 113.885 103.361 113.592 103.016 113.377C102.671 113.153 102.279 113.041 101.84 113.041C101.4 113.041 101.004 113.149 100.65 113.364C100.306 113.579 100.03 113.877 99.823 114.256C99.6248 114.627 99.5257 115.049 99.5257 115.523C99.5257 115.988 99.6248 116.41 99.823 116.79C100.03 117.16 100.306 117.453 100.65 117.669C101.004 117.884 101.4 117.992 101.84 117.992ZM109.465 119.155C108.767 119.155 108.16 118.983 107.643 118.638C107.126 118.293 106.76 117.828 106.544 117.242L107.501 116.777C107.699 117.19 107.97 117.518 108.315 117.759C108.66 118 109.043 118.121 109.465 118.121C109.845 118.121 110.159 118.031 110.409 117.85C110.659 117.669 110.784 117.432 110.784 117.139C110.784 116.932 110.724 116.768 110.603 116.647C110.491 116.518 110.353 116.419 110.189 116.35C110.026 116.272 109.875 116.216 109.737 116.182L108.69 115.885C108.061 115.704 107.6 115.445 107.307 115.109C107.022 114.773 106.88 114.381 106.88 113.933C106.88 113.519 106.984 113.162 107.19 112.86C107.406 112.55 107.695 112.308 108.056 112.136C108.427 111.964 108.841 111.877 109.297 111.877C109.909 111.877 110.457 112.033 110.939 112.343C111.43 112.653 111.779 113.088 111.986 113.648L111.004 114.101C110.849 113.739 110.616 113.455 110.306 113.248C109.995 113.032 109.646 112.925 109.259 112.925C108.905 112.925 108.625 113.015 108.418 113.196C108.212 113.368 108.108 113.588 108.108 113.855C108.108 114.053 108.16 114.217 108.263 114.346C108.367 114.467 108.492 114.562 108.638 114.631C108.785 114.691 108.927 114.743 109.065 114.786L110.202 115.122C110.771 115.286 111.211 115.54 111.521 115.885C111.84 116.229 111.999 116.643 111.999 117.126C111.999 117.513 111.891 117.862 111.676 118.173C111.46 118.483 111.163 118.724 110.784 118.897C110.405 119.069 109.965 119.155 109.465 119.155Z" fill="#7E6E6E"/>
<defs>
<filter id="filter0_d_1186_604" x="0" y="0" width="171" height="154" filterUnits="userSpaceOnUse" color-interpolation-filters="sRGB">
<feFlood flood-opacity="0" result="BackgroundImageFix"/>
<feColorMatrix in="SourceAlpha" type="matrix" values="0 0 0 0 0 0 0 0 0 0 0 0 0 0 0 0 0 0 127 0" result="hardAlpha"/>
<feOffset dy="4"/>
<feGaussianBlur stdDeviation="2"/>
<feComposite in2="hardAlpha" operator="out"/>
<feColorMatrix type="matrix" values="0 0 0 0 0 0 0 0 0 0 0 0 0 0 0 0 0 0 0.25 0"/>
<feBlend mode="normal" in2="BackgroundImageFix" result="effect1_dropShadow_1186_604"/>
<feBlend mode="normal" in="SourceGraphic" in2="effect1_dropShadow_1186_604" result="shape"/>
</filter>
</defs>
</svg>
