<svg width="277" height="264" viewBox="0 0 277 264" fill="none" xmlns="http://www.w3.org/2000/svg">
<path d="M117.22 4.97628C24.148 26.5418 1.82574 105.71 2.29867 142.599C-11.8902 231.982 76.0766 274.546 105.871 261.777C413.748 90.1035 233.561 -21.9807 117.22 4.97628Z" fill="#F6FB8D"/>
<path fill-rule="evenodd" clip-rule="evenodd" d="M56.163 63.5963H66.0683V53.2536H56.4734C49.6709 53.2536 44.1052 58.8193 44.1052 65.6221V150.711C44.1052 157.513 49.6709 163.079 56.4734 163.079H71.325L70.4713 153.23C70.4713 148.755 72.0252 144.991 74.6446 142.245H54.4476V65.3114C54.4476 64.3682 55.2195 63.5963 56.163 63.5963ZM88.9796 111.901C88.9796 108.346 91.8877 105.438 95.4426 105.438C98.9972 105.438 101.905 108.348 101.905 111.901V137.136C102.545 134.172 105.194 131.935 108.342 131.935C111.912 131.935 114.854 134.821 114.922 138.391C115.897 136.407 117.94 135.034 120.289 135.034C123.576 135.034 126.263 137.722 126.263 141.007V141.976C127.33 140.552 129.031 139.625 130.937 139.625C134.148 139.625 136.773 142.251 136.773 145.46L136.774 172.528C136.774 175.287 136.158 177.654 134.815 180.058H92.1277C91.6758 179.272 91.0128 178.607 90.1692 178.116L83.6104 174.295C79.9012 172.134 77.2201 168.834 76.8407 164.558L75.8345 153.23C75.8345 147.909 78.9131 144.257 83.6171 143.063V154.481C83.6171 155.192 83.8996 155.874 84.4024 156.377C84.9053 156.88 85.5873 157.162 86.2985 157.162C87.0097 157.162 87.6917 156.88 88.1946 156.377C88.6974 155.874 88.98 155.192 88.98 154.481L88.9796 111.901ZM134.122 185.4V190.708H92.8205V185.4H134.122ZM74.783 38.697H174.314C176.157 38.697 177.666 40.2053 177.666 42.0488V125.938C177.666 127.781 176.157 129.289 174.314 129.289H115.912C113.848 127.592 111.208 126.573 108.342 126.573C107.983 126.573 107.625 126.589 107.268 126.621V114.059C107.492 113.676 107.61 113.24 107.61 112.796V93.4992C107.61 92.1138 106.476 90.9803 105.091 90.9803H85.7941C84.4088 90.9803 83.2752 92.1138 83.2752 93.4992V112.796C83.2752 113.255 83.3999 113.686 83.6167 114.059V129.289H74.783C72.9395 129.289 71.4312 127.781 71.4312 125.938V42.0488C71.4312 40.2053 72.9395 38.697 74.783 38.697ZM88.4135 66.2358L92.6435 70.4658C93.7777 71.6001 95.639 71.4885 96.6358 70.2413L102.66 62.7942C103.094 62.2402 103.294 61.5374 103.215 60.8376C103.136 60.1378 102.784 59.4973 102.237 59.0543C101.689 58.6113 100.99 58.4015 100.289 58.4702C99.5879 58.5389 98.9422 58.8805 98.4911 59.4213L94.3284 64.567L92.2051 62.4436C91.9561 62.1946 91.6606 61.9971 91.3353 61.8624C91.01 61.7276 90.6614 61.6582 90.3093 61.6582C89.9572 61.6582 89.6086 61.7276 89.2833 61.8624C88.958 61.9971 88.6624 62.1946 88.4135 62.4436C87.9108 62.9466 87.6285 63.6286 87.6285 64.3397C87.6285 65.0508 87.9108 65.7328 88.4135 66.2358ZM85.7941 52.6717C84.4088 52.6717 83.2752 53.8053 83.2752 55.1906V74.4873C83.2752 75.8726 84.4088 77.0062 85.7941 77.0062H105.091C106.476 77.0062 107.61 75.8726 107.61 74.4873V55.1906C107.61 53.8053 106.476 52.6717 105.091 52.6717H85.7941ZM122.986 74.4622H165.821C166.532 74.4622 167.214 74.1797 167.717 73.6768C168.22 73.174 168.503 72.4919 168.503 71.7808C168.503 71.0696 168.22 70.3875 167.717 69.8847C167.214 69.3818 166.532 69.0993 165.821 69.0993H122.986C122.275 69.0993 121.593 69.3818 121.09 69.8847C120.587 70.3875 120.305 71.0696 120.305 71.7808C120.305 72.4919 120.587 73.174 121.09 73.6768C121.593 74.1797 122.275 74.4622 122.986 74.4622ZM122.986 60.5787H165.821C166.532 60.5787 167.214 60.2962 167.717 59.7933C168.22 59.2904 168.503 58.6084 168.503 57.8972C168.503 57.186 168.22 56.504 167.717 56.0011C167.214 55.4983 166.532 55.2158 165.821 55.2158H122.986C122.275 55.2158 121.593 55.4983 121.09 56.0011C120.587 56.504 120.305 57.186 120.305 57.8972C120.305 58.6084 120.587 59.2904 121.09 59.7933C121.593 60.2962 122.275 60.5787 122.986 60.5787ZM122.986 98.8872H165.821C166.532 98.8872 167.214 98.6047 167.717 98.1018C168.22 97.5989 168.503 96.9169 168.503 96.2057C168.503 95.4946 168.22 94.8125 167.717 94.3097C167.214 93.8068 166.532 93.5243 165.821 93.5243H122.986C122.275 93.5243 121.593 93.8068 121.09 94.3097C120.587 94.8125 120.305 95.4946 120.305 96.2057C120.305 96.9169 120.587 97.5989 121.09 98.1018C121.593 98.6047 122.275 98.8872 122.986 98.8872ZM122.986 112.77H165.821C166.532 112.77 167.214 112.488 167.717 111.985C168.22 111.482 168.503 110.8 168.503 110.089C168.503 109.378 168.22 108.696 167.717 108.193C167.214 107.69 166.532 107.407 165.821 107.407H122.986C122.275 107.407 121.593 107.69 121.09 108.193C120.587 108.696 120.305 109.378 120.305 110.089C120.305 110.8 120.587 111.482 121.09 111.985C121.593 112.488 122.275 112.77 122.986 112.77ZM80.4399 182.729L87.4579 182.742V196.07H139.485C139.485 192.114 139.146 186.438 139.486 182.692C141.279 179.49 142.137 176.201 142.137 172.528L142.136 145.459C142.136 144.342 141.971 143.263 141.664 142.244H194.649V65.3114C194.649 64.3682 193.877 63.5963 192.934 63.5963H183.028V53.2536H192.623C199.426 53.2536 204.992 58.8193 204.992 65.6221V150.711C204.992 157.513 199.426 163.079 192.623 163.079H149.83V182.73H168.657C174.458 182.73 179.204 186.522 179.204 191.157V199.584H69.8921V191.157C69.8921 186.521 74.6386 182.729 80.4399 182.729Z" fill="black"/>
</svg>
