<svg width="276" height="264" viewBox="0 0 276 264" fill="none" xmlns="http://www.w3.org/2000/svg">
<path d="M116.706 4.97628C23.6331 26.5418 1.31085 105.71 1.78378 142.599C-12.4051 231.982 75.5617 274.546 105.356 261.777C413.233 90.1035 233.046 -21.9807 116.706 4.97628Z" fill="#F6FB8D"/>
<path d="M156.026 68.6976H174.116C171.294 62.9746 167.56 57.7486 163.06 53.2243C158.548 48.7099 153.319 44.9739 147.586 42.168V60.2576C147.593 62.494 148.484 64.6369 150.066 66.2182C151.647 67.7996 153.79 68.6909 156.026 68.6976ZM180.165 134.22C160.404 125.49 136.713 141.011 137.149 162.747C137.165 170.95 140.431 178.811 146.231 184.611C152.031 190.412 159.893 193.677 168.096 193.694C201.968 193.153 210.729 147.609 180.165 134.22ZM182.162 165.56H170.909V176.814C170.909 177.56 170.612 178.275 170.085 178.803C169.557 179.331 168.842 179.627 168.096 179.627C167.349 179.627 166.634 179.331 166.106 178.803C165.579 178.275 165.282 177.56 165.282 176.814V165.56H154.029C153.283 165.56 152.567 165.264 152.04 164.736C151.512 164.209 151.216 163.493 151.216 162.747C151.216 162.001 151.512 161.285 152.04 160.758C152.567 160.23 153.283 159.934 154.029 159.934H165.282V148.68C165.282 147.934 165.579 147.219 166.106 146.691C166.634 146.164 167.349 145.867 168.096 145.867C168.842 145.867 169.557 146.164 170.085 146.691C170.612 147.219 170.909 147.934 170.909 148.68V159.934H182.162C182.908 159.934 183.624 160.23 184.152 160.758C184.679 161.285 184.976 162.001 184.976 162.747C184.976 163.493 184.679 164.209 184.152 164.736C183.624 165.264 182.908 165.56 182.162 165.56Z" fill="black"/>
<path d="M131.522 162.747C131.092 138.01 157.005 119.751 180.165 128.2C179.625 114.442 182.244 87.094 176.507 74.3243H156.026C152.298 74.3184 148.723 72.8345 146.086 70.1978C143.45 67.561 141.966 63.9866 141.96 60.2577V39.7767C135.508 37.3658 128.675 36.1365 121.788 36.1475H80.0948C76.3646 36.149 72.7875 37.6315 70.1499 40.2692C67.5122 42.9069 66.0297 46.4839 66.0282 50.2142V179.627C66.0297 183.357 67.5122 186.934 70.1499 189.572C72.7875 192.21 76.3646 193.692 80.0948 193.694H148.684C143.432 190.416 139.101 185.855 136.099 180.441C133.096 175.027 131.522 168.938 131.522 162.747ZM165.282 95.2273C166.028 95.2273 166.744 95.5238 167.272 96.0513C167.799 96.579 168.096 97.2945 168.096 98.0407C168.096 98.7868 167.799 99.5024 167.272 100.03C166.744 100.558 166.028 100.854 165.282 100.854H117.456C116.71 100.854 115.994 100.558 115.466 100.03C114.939 99.5024 114.642 98.7868 114.642 98.0407C114.642 97.2945 114.939 96.579 115.466 96.0513C115.994 95.5238 116.71 95.2273 117.456 95.2273H165.282ZM117.456 83.9741H145.589C146.335 83.9741 147.051 84.2705 147.578 84.7981C148.106 85.3257 148.402 86.0412 148.402 86.7874C148.402 87.5335 148.106 88.2491 147.578 88.7767C147.051 89.3043 146.335 89.6007 145.589 89.6007H117.456C116.71 89.6007 115.994 89.3043 115.466 88.7767C114.939 88.2491 114.642 87.5335 114.642 86.7874C114.642 86.0412 114.939 85.3257 115.466 84.7981C115.994 84.2705 116.71 83.9741 117.456 83.9741ZM117.456 117.734H145.589C146.335 117.734 147.051 118.03 147.578 118.558C148.106 119.086 148.402 119.801 148.402 120.547C148.402 121.293 148.106 122.009 147.578 122.537C147.051 123.064 146.335 123.361 145.589 123.361H117.456C116.71 123.361 115.994 123.064 115.466 122.537C114.939 122.009 114.642 121.293 114.642 120.547C114.642 119.801 114.939 119.086 115.466 118.558C115.994 118.03 116.71 117.734 117.456 117.734ZM117.456 128.987H139.456C140.202 128.987 140.918 129.284 141.445 129.811C141.973 130.339 142.269 131.054 142.269 131.801C142.269 132.547 141.973 133.262 141.445 133.79C140.918 134.317 140.202 134.614 139.456 134.614H117.456C116.71 134.614 115.994 134.317 115.466 133.79C114.939 133.262 114.642 132.547 114.642 131.801C114.642 131.054 114.939 130.339 115.466 129.811C115.994 129.284 116.71 128.987 117.456 128.987ZM106.202 168.374C106.198 169.865 105.604 171.293 104.55 172.348C103.495 173.402 102.067 173.996 100.576 174H83.6959C82.205 173.996 80.7764 173.402 79.7222 172.348C78.6679 171.293 78.0737 169.865 78.0692 168.374V151.494C78.0737 150.003 78.6679 148.574 79.7222 147.52C80.7764 146.466 82.205 145.872 83.6959 145.867H100.576C102.067 145.872 103.495 146.466 104.55 147.52C105.604 148.574 106.198 150.003 106.202 151.494V168.374ZM106.202 134.614C106.198 136.105 105.604 137.533 104.55 138.588C103.495 139.642 102.067 140.236 100.576 140.241H83.6959C82.205 140.236 80.7764 139.642 79.7222 138.588C78.6679 137.533 78.0737 136.105 78.0692 134.614V117.734C78.0737 116.243 78.6679 114.814 79.7222 113.76C80.7764 112.706 82.205 112.112 83.6959 112.107H100.576C102.067 112.112 103.495 112.706 104.55 113.76C105.604 114.814 106.198 116.243 106.202 117.734V134.614ZM106.202 100.854C106.198 102.345 105.604 103.773 104.55 104.828C103.495 105.882 102.067 106.476 100.576 106.481H83.6959C82.205 106.476 80.7764 105.882 79.7222 104.828C78.6679 103.773 78.0737 102.345 78.0692 100.854V83.9741C78.0737 82.4831 78.6679 81.0546 79.7222 80.0003C80.7764 78.9461 82.205 78.3519 83.6959 78.3474H100.576C102.067 78.3519 103.495 78.9461 104.55 80.0003C105.604 81.0546 106.198 82.4831 106.202 83.9741V100.854ZM126.008 168.374H117.456C116.71 168.374 115.994 168.077 115.466 167.55C114.939 167.022 114.642 166.307 114.642 165.56C114.642 164.814 114.939 164.099 115.466 163.571C115.994 163.044 116.71 162.747 117.456 162.747H126.008C126.754 162.747 127.47 163.044 127.998 163.571C128.525 164.099 128.822 164.814 128.822 165.56C128.822 166.307 128.525 167.022 127.998 167.55C127.47 168.077 126.754 168.374 126.008 168.374ZM126.74 157.12H117.456C116.71 157.12 115.994 156.824 115.466 156.296C114.939 155.769 114.642 155.053 114.642 154.307C114.642 153.561 114.939 152.845 115.466 152.318C115.994 151.79 116.71 151.494 117.456 151.494H126.74C127.486 151.494 128.201 151.79 128.729 152.318C129.257 152.845 129.553 153.561 129.553 154.307C129.553 155.053 129.257 155.769 128.729 156.296C128.201 156.824 127.486 157.12 126.74 157.12Z" fill="black"/>
<path d="M83.6959 151.494H100.576V168.374H83.6959V151.494ZM83.6959 117.734H100.576V134.614H83.6959V117.734ZM83.6959 83.9741H100.576V100.854H83.6959V83.9741Z" fill="black"/>
</svg>
