<svg width="277" height="264" viewBox="0 0 277 264" fill="none" xmlns="http://www.w3.org/2000/svg">
<path d="M116.991 4.97628C23.9184 26.5418 1.59613 105.71 2.06906 142.599C-12.1198 231.982 75.847 274.546 105.641 261.777C413.518 90.1035 233.331 -21.9807 116.991 4.97628Z" fill="#F6FB8D"/>
<g clip-path="url(#clip0_1219_696)">
<path d="M185.619 55.8408H68.6445C59.7858 55.8408 52.5789 63.048 52.5789 71.9067V160.807C52.5789 169.666 59.7858 176.873 68.6445 176.873H137.422V158.468C137.422 143.502 149.598 131.326 164.564 131.326C179.53 131.326 191.705 143.502 191.705 158.468V175.672C197.554 173.269 201.685 167.513 201.685 160.807V71.9067C201.685 63.048 194.478 55.8408 185.619 55.8408ZM94.379 74.8673H159.885C162.297 74.8673 164.253 76.8231 164.253 79.2356C164.253 81.6481 162.297 83.604 159.885 83.604H94.379C91.9668 83.604 90.0106 81.6481 90.0106 79.2356C90.0106 76.8231 91.9668 74.8673 94.379 74.8673ZM123.074 153.478H75.6629C73.2507 153.478 71.2946 151.522 71.2946 149.11C71.2946 146.697 73.2507 144.742 75.6629 144.742H123.074C125.487 144.742 127.443 146.697 127.443 149.11C127.443 151.522 125.487 153.478 123.074 153.478ZM178.6 121.036H75.6629C73.2507 121.036 71.2946 119.08 71.2946 116.668C71.2946 114.255 73.2507 112.299 75.6629 112.299H178.601C181.013 112.299 182.969 114.255 182.969 116.668C182.969 119.08 181.013 121.036 178.6 121.036ZM178.6 102.32H75.6629C73.2507 102.32 71.2946 100.364 71.2946 97.9517C71.2946 95.5392 73.2507 93.5833 75.6629 93.5833H178.601C181.013 93.5833 182.969 95.5392 182.969 97.9517C182.969 100.364 181.013 102.32 178.6 102.32Z" fill="black"/>
<path d="M164.564 140.062C154.415 140.062 146.159 148.319 146.159 158.468C146.159 168.616 154.415 176.873 164.564 176.873C174.713 176.873 182.969 168.616 182.969 158.468C182.969 148.319 174.713 140.062 164.564 140.062ZM146.159 178.397V200.579C146.159 201.369 146.373 202.145 146.779 202.824C147.186 203.502 147.768 204.057 148.466 204.43C149.163 204.803 149.948 204.98 150.738 204.942C151.528 204.904 152.292 204.652 152.95 204.213L164.564 196.471L176.177 204.213C176.895 204.692 177.738 204.947 178.601 204.947C179.175 204.947 179.743 204.834 180.273 204.614C180.802 204.395 181.284 204.073 181.69 203.667C182.095 203.262 182.417 202.78 182.636 202.25C182.856 201.72 182.969 201.152 182.969 200.579V178.397C178.128 182.871 171.66 185.61 164.564 185.61C157.467 185.61 151 182.871 146.159 178.397Z" fill="black"/>
</g>
<defs>
<clipPath id="clip0_1219_696">
<rect width="149.106" height="149.106" fill="white" transform="translate(52.5789 55.8408)"/>
</clipPath>
</defs>
</svg>
