<svg xmlns="http://www.w3.org/2000/svg" xmlns:xlink="http://www.w3.org/1999/xlink" width="65" height="37" viewBox="0 0 65 37">
    <defs>
        <path id="a" d="M19.17 13.236v-.971h.792c.602 0 1.01-.356 1.01-.875 0-.474-.373-.835-.993-.835-.641 0-1.037.33-1.08.897h-1.227c.044-1.17.945-1.956 2.373-1.956 1.407 0 2.189.778 2.184 1.705-.004.77-.487 1.275-1.168 1.442v.083c.883.128 1.419.69 1.419 1.538 0 1.112-1.046 1.899-2.479 1.899-1.432 0-2.408-.783-2.465-1.982h1.27c.04.536.497.879 1.178.879.672 0 1.142-.365 1.142-.914 0-.563-.439-.91-1.15-.91h-.805zm6.98 2.927c-1.521 0-2.624-1.086-2.624-3.288 0-2.104 1.015-3.379 2.637-3.379 1.248 0 2.175.725 2.329 1.784h-1.314c-.101-.43-.484-.694-.998-.694-.879 0-1.388.782-1.388 2.153h.079c.29-.593.879-.927 1.617-.927 1.204 0 2.087.888 2.087 2.096 0 1.319-1.006 2.255-2.426 2.255zm-.014-1.09c.66 0 1.152-.492 1.152-1.134 0-.66-.466-1.13-1.147-1.13-.682 0-1.152.475-1.152 1.112 0 .65.488 1.152 1.147 1.152z"/>
        <path id="b" d="M32.258 16.163c-1.569 0-2.518-1.24-2.518-3.345 0-2.1.958-3.322 2.518-3.322 1.555 0 2.518 1.222 2.518 3.327 0 2.096-.95 3.34-2.518 3.34zm0-1.081c.73 0 1.173-.76 1.173-2.264 0-1.494-.448-2.236-1.173-2.236-.72 0-1.174.747-1.174 2.236 0 1.503.449 2.264 1.174 2.264zm5.067-2.132c-1.068 0-1.701-.633-1.701-1.696 0-1.05.646-1.692 1.7-1.692 1.051 0 1.701.637 1.701 1.692 0 1.068-.637 1.696-1.7 1.696zm0-.769c.457 0 .72-.343.72-.923 0-.58-.263-.923-.72-.923-.457 0-.725.343-.725.923 0 .585.263.923.725.923z"/>
    </defs>
    <g fill="none" fill-rule="evenodd">
        <path fill="#5F82F9" fill-rule="nonzero" d="M50.42 33.32L50 36.495H6v-3.177l22-3.176z"/>
        <path fill="#436AEE" fill-rule="nonzero" d="M47.705 26.172l2.77 7.147H6l2.224-7.147H28z"/>
        <path fill="#F5FBFF" fill-rule="nonzero" d="M29.803 30.778h-4.234c-.393 0-.712-.426-.712-.953 0-.526.319-.953.712-.953h4.234c.393 0 .711.427.711.953 0 .527-.318.953-.711.953z"/>
        <path fill="#FFEA92" fill-rule="nonzero" stroke="#FFDB0C" stroke-linecap="round" stroke-width="3" d="M44.025 1.555H11.69C10.205 1.555 9 2.746 9 4.219v22.112h37.714V4.22c0-1.473-1.205-2.664-2.689-2.664z"/>
        <path fill="#436AEE" fill-rule="nonzero" d="M61.865 36.046l-3.426-3.197-1.646 2.305-4.97-10.54 11.294 4.638-2.47 1.536 3.425 3.197a1.39 1.39 0 0 1 0 2.06 1.641 1.641 0 0 1-2.207 0z"/>
        <g fill-rule="nonzero" transform="translate(0 1)">
            <use fill="#000" xlink:href="#a"/>
            <use fill="#436AEE" xlink:href="#a"/>
        </g>
        <g fill-rule="nonzero" transform="translate(0 1)">
            <use fill="#000" xlink:href="#b"/>
            <use fill="#436AEE" xlink:href="#b"/>
        </g>
        <path stroke="#979797" stroke-linecap="round" stroke-width="1.5" d="M6.476 17.115c-8.398 0-9.273 5.763 12.524 6.596 40.69 1.556 41.337-5.143 32.899-6.596"/>
        <path stroke="#979797" stroke-linecap="round" stroke-linejoin="round" stroke-width="1.5" d="M53.259 15.376l-3.238 1.373 2.267 2.276"/>
    </g>
</svg>
