<svg width="32" height="32" viewBox="0 0 32 32" fill="none" xmlns="http://www.w3.org/2000/svg">
<path d="M16.3252 5.33325C17.0374 5.33717 18.8191 5.3544 20.7122 5.43023L21.3834 5.45949C23.2894 5.54973 25.1938 5.70389 26.1383 5.96725C27.3982 6.32119 28.3884 7.35392 28.7231 8.66301C29.256 10.7418 29.3227 14.7991 29.331 15.781L29.3322 15.9845V15.9987C29.3322 15.9987 29.3322 16.0037 29.3322 16.0131L29.331 16.2166C29.3227 17.1985 29.256 21.2558 28.7231 23.3346C28.3838 24.6485 27.3935 25.6813 26.1383 26.0303C25.1938 26.2937 23.2894 26.4478 21.3834 26.5381L20.7122 26.5673C18.8191 26.6431 17.0374 26.6603 16.3252 26.6643L16.0127 26.6654H15.9988C15.9988 26.6654 15.9942 26.6654 15.985 26.6654L15.6727 26.6643C14.1655 26.6561 7.86365 26.5879 5.85937 26.0303C4.59949 25.6763 3.60925 24.6437 3.27451 23.3346C2.74162 21.2558 2.67501 17.1985 2.66669 16.2166V15.781C2.67501 14.7991 2.74162 10.7418 3.27451 8.66301C3.61389 7.34907 4.60413 6.31635 5.85937 5.96725C7.86365 5.40956 14.1655 5.34155 15.6727 5.33325H16.3252ZM13.3322 11.3321V20.6654L21.3322 15.9987L13.3322 11.3321Z" fill="black"/>
</svg>
