<svg xmlns="http://www.w3.org/2000/svg" width="256" height="256" viewBox="0 0 256 256">
  <g id="default_avatar" transform="translate(-466 -41)">
    <path id="Path_3" data-name="Path 3" d="M0,0H256V256L129.111,227.03,0,256Z" transform="translate(466 41)" fill="#c2c6ca" fill-rule="evenodd"/>
    <path id="Path_4" data-name="Path 4" d="M.56,200.606v10.14H245.841v-13.23c-2.028-3.38-2.9-10.043-8.3-15.258C227.4,172.5,183.555,161.3,172.16,154.64c-3.38-1.931-3.959-2.994-6.18-5.408-2.318-2.318-3.766-2.994-6.953-4.732-4.925-2.607-2.994-14.485-1.159-18.444a83.123,83.123,0,0,0,5.6-17.768c4.539.483,4.732.193,6.663-4.152,2.8-6.084,7.532-22.693,6.084-28.777l-4.442-.773c2.028-10.236,4.346-17.189,1.642-28.294C169.167,28.716,160.379,16.452,143,10.851c-10.236-3.38-17.672-2.8-28.1-4.249l3.476-1.062c.193-.29.386-.193.579-.29a47.794,47.794,0,0,0-11.781.966C98.093,8.34,102.149,9.4,100.6,6.6c-5.7,2.8-6.373,4.635-9.56,10.043-4.828.773-12.843,3.573-12.361,5.794.386,2.221-.579,1.642-2.124,4.152-3.38,5.311-.966,6.277-2.028,10.816-3.476,14.678.386,24.914,2.7,37.178-4.249,2.318-5.311,0-5.021,8.4.1,4.442,1.642,6.47,2.994,9.85s1.545,6.663,3.187,10.333c1.835,4.249,1.931,5.794,6.953,5.891a39.954,39.954,0,0,0,5.5,15.934c3.187,5.118,1.545,11.2,1.255,18.155-17.382,9.27-4.635,6.856-22.6,14.582-14.871,6.47-40.848,13.519-53.981,20.955C3.264,185.735,4.036,193.943.56,200.606Z" transform="translate(470.848 86.254)" fill="#fafbfc" fill-rule="evenodd"/>
  </g>
</svg>
